<?xml version="1.0" encoding="UTF-8"?>
<svg width="338px" height="370px" viewBox="0 0 338 370" version="1.1" xmlns="http://www.w3.org/2000/svg" xmlns:xlink="http://www.w3.org/1999/xlink">
    <!-- Generator: Sketch 43.1 (39012) - http://www.bohemiancoding.com/sketch -->
    <title>16864382_1318538044878379_3967181630724883817_n</title>
    <desc>Created with Sketch.</desc>
    <defs></defs>
    <g id="Page-1" stroke="none" stroke-width="1" fill="none" fill-rule="evenodd">
        <g id="16864382_1318538044878379_3967181630724883817_n" transform="translate(-45.000000, -34.000000)" fill-rule="nonzero" fill="#FFFFFF">
            <g id="layer1" transform="translate(45.284583, 34.910625)">
                <path d="M198.277917,368.05 C191.782917,366.336042 187.949063,361.329479 186.550833,352.895 C185.738958,347.888438 185.423229,348.294375 191.196563,347.392292 C193.947917,346.986354 196.563958,346.535312 196.969896,346.4 C197.55625,346.219583 197.781771,346.715729 198.007292,349.016042 C198.683854,355.465937 200.668438,358.397708 204.321875,358.397708 C205.810313,358.397708 206.486875,358.127083 207.343854,357.225 C208.291042,356.187604 208.426354,355.646354 208.426354,352.624375 C208.426354,347.978646 207.343854,346.219583 201.074375,340.491354 C192.504583,332.643229 189.482604,329.440833 188.174583,326.779688 C184.791771,319.833646 185.829167,310.903021 190.565104,305.941562 C193.722396,302.603854 198.007292,301.070312 204.186563,301.070312 C209.148021,301.070312 212.395521,301.972396 214.786042,304.002083 C217.672708,306.482813 220.108333,312.30125 220.469167,317.578438 L220.604479,319.382604 L215.056667,320.239583 C212.034688,320.690625 209.418646,321.006354 209.328438,320.871042 C209.238229,320.780833 208.9225,319.202187 208.651875,317.398021 C207.930208,312.256146 207.028125,311.038333 203.961042,311.038333 C199.225104,311.038333 197.646458,317.398021 201.164583,322.494792 C202.021563,323.757708 204.412083,326.238437 206.441771,327.952396 C211.267917,332.101979 216.094063,336.928125 217.762917,339.36375 C223.040104,347.031458 223.310729,356.413125 218.439479,362.998333 C217.04125,364.847604 213.297604,367.238125 210.501146,368.05 C207.434063,368.952083 201.615625,368.952083 198.277917,368.05 Z" id="Shape"></path>
                <path d="M35.451875,367.328333 C35.451875,366.922396 46.00625,312.211042 47.6751042,303.911875 L48.17125,301.566458 L55.6134375,301.656667 L63.1007292,301.791979 L69.3702083,334.266979 C72.798125,352.128229 75.5945833,367.012604 75.5945833,367.328333 C75.5945833,367.779375 74.1963542,367.869583 69.4153125,367.779375 L63.1909375,367.644063 L62.0633333,360.652917 L60.9357292,353.661771 L55.74875,353.661771 L50.606875,353.661771 L49.3890625,360.427396 C48.7125,364.171042 48.1261458,367.328333 48.1261458,367.553854 C48.0359375,368.140208 35.451875,367.959792 35.451875,367.328333 Z M59.3570833,344.325208 C59.3570833,342.972083 56.019375,321.141667 55.74875,320.825938 C55.5232292,320.555313 52.1404167,342.160208 52.1404167,344.099688 C52.1404167,344.77625 52.5914583,344.866458 55.74875,344.866458 C58.3196875,344.866458 59.3570833,344.686042 59.3570833,344.325208 Z" id="Shape"></path>
                <polygon id="Shape" points="119.345625 334.718021 119.345625 301.521354 125.885729 301.656667 132.470937 301.791979 132.561146 330.207604 132.651354 358.623229 140.454375 358.758542 148.212292 358.84875 148.212292 363.359167 148.212292 367.869583 133.778958 367.869583 119.345625 367.869583"></polygon>
                <polygon id="Shape" points="159.939375 334.718021 159.939375 301.566458 166.705 301.566458 173.470625 301.566458 173.470625 334.718021 173.470625 367.869583 166.705 367.869583 159.939375 367.869583"></polygon>
                <polygon id="Shape" points="241.577917 339.905 241.577917 311.940417 236.165417 311.940417 230.752917 311.940417 230.752917 306.753438 230.752917 301.566458 248.027812 301.656667 265.257604 301.791979 265.257604 306.753438 265.257604 311.714896 260.205937 311.850208 255.109167 311.985521 255.109167 339.905 255.109167 367.869583 248.343542 367.869583 241.577917 367.869583"></polygon>
                <path d="M269.722917,367.102813 C269.858229,366.651771 272.609583,352.489063 275.857083,335.620104 C279.104583,318.751146 281.901042,304.227604 282.081458,303.370625 L282.442292,301.791979 L289.974687,301.656667 C294.124271,301.611563 297.507083,301.701771 297.507083,301.837083 C297.507083,302.107708 309.324375,363.629792 309.955833,366.651771 L310.226458,367.869583 L303.911875,367.869583 L297.597292,367.869583 L297.056042,364.847604 C296.785417,363.133646 296.244167,359.886146 295.838229,357.630938 L295.071458,353.43625 L290.019792,353.43625 L284.968125,353.43625 L284.517083,355.60125 C284.246458,356.773958 283.705208,360.021458 283.254167,362.817917 L282.442292,367.869583 L275.947292,367.869583 C269.993542,367.869583 269.497396,367.824479 269.722917,367.102813 Z M293.673229,343.874167 C293.537917,343.287813 292.726042,337.965521 291.869062,332.011771 C290.11,320.239583 290.064896,319.968958 289.704062,320.96125 C289.478542,321.592708 286.231042,343.738854 286.231042,344.550729 C286.231042,344.731146 287.945,344.866458 290.064896,344.866458 C293.808542,344.866458 293.89875,344.821354 293.673229,343.874167 Z" id="Shape"></path>
                <polygon id="Shape" points="85.1566667 340.265833 85.2919792 336.071146 95.4404167 336.071146 105.588854 336.071146 105.724167 340.265833 105.859479 344.415417 95.4404167 344.415417 85.0213542 344.415417"></polygon>
                <path d="M79.8794792,249.200521 C72.4372917,248.749479 62.6045833,247.306146 55.1172917,245.637292 C51.9148958,244.870521 49.25375,244.239062 49.1635417,244.193958 C48.8027083,243.742917 46.00625,229.895937 45.1492708,223.987292 C43.9765625,215.95875 43.6608333,202.201979 44.4727083,194.173437 C45.1041667,187.949062 46.8632292,179.514583 48.5320833,174.327604 C50.33625,168.779792 55.5232292,158.360729 58.6805208,153.985625 C60.07875,152.046146 61.3416667,150.4675 61.5671875,150.4675 C61.7927083,150.4675 62.2888542,151.414687 62.7398958,152.6325 C64.138125,156.331042 67.2954167,162.284792 70.091875,166.479479 C76.5417708,176.267083 83.9388542,183.077812 96.4327083,190.790625 C97.154375,191.196562 98.3721875,192.820312 99.2291667,194.579375 C107.1675,210.365833 122.728438,224.0775 139.462083,230.076354 C141.446667,230.798021 143.115521,231.429479 143.205729,231.474583 C143.837188,231.970729 135.041875,237.834271 129.494063,240.585625 C115.872604,247.396354 98.7330208,250.373229 79.8794792,249.200521 Z" id="Shape"></path>
                <path d="M234.812292,248.523958 C225.16,247.215938 215.372396,244.284167 207.29875,240.224792 C200.127188,236.616458 191.376979,230.121458 192.865417,229.535104 C193.22625,229.399792 196.022708,228.001563 198.999583,226.468021 C205.088646,223.355833 210.185417,219.927917 214.380104,216.139167 C217.04125,213.703542 217.266771,213.568229 221.145729,212.936771 C233.504271,210.816875 245.817708,205.223958 255.785729,197.240521 C259.25875,194.444063 259.529375,194.30875 262.551354,194.038125 C271.527083,193.136042 280.457708,190.925938 287.990104,187.678438 C290.064896,186.821458 291.823958,186.144896 291.869063,186.19 C292.275,186.776354 293.086875,195.436354 293.312396,201.705833 C293.718333,213.432917 292.455417,225.430625 289.523646,238.736354 L288.260729,244.193958 L284.201354,245.18625 C278.292708,246.539375 271.030938,247.802292 264.355521,248.569063 C257.048646,249.426042 241.352396,249.380938 234.812292,248.523958 Z" id="Shape"></path>
                <path d="M156.285938,222.408646 C148.708438,221.190833 143.295938,219.476875 137.161771,216.409792 C122.277396,208.967604 111.046458,196.112917 105.679063,180.23625 C101.619688,168.283646 101.349063,154.436667 104.957396,142.213438 C110.324792,123.94625 124.667917,108.430417 142.799792,101.303958 C144.062708,100.807813 145.055,100.492083 145.055,100.582292 C145.055,100.6725 144.333333,102.025625 143.476354,103.559167 C140.273958,109.197188 137.432396,116.639375 135.85375,123.495208 C133.959375,131.794375 133.778958,145.055 135.538021,153.715 C138.740417,169.636771 147.355313,184.611354 159.488333,195.346146 C168.824896,203.600208 182.220833,210.275625 194.218542,212.575938 C196.428646,212.981875 198.277917,213.478021 198.277917,213.658438 C198.277917,214.154583 188.535417,218.800313 185.197708,219.882813 C176.402396,222.724375 164.494896,223.761771 156.285938,222.408646 Z" id="Shape"></path>
                <path d="M199.405521,201.705833 C178.161458,198.142604 160.706146,185.1075 151.865729,166.253958 C148.437812,158.947083 146.543437,151.820625 146.092396,144.378437 L145.821771,140.319062 L150.873437,145.145208 C161.112083,154.932812 173.425521,161.427812 187.633333,164.54 C191.6025,165.442083 193.496875,165.532292 202.562812,165.532292 C211.583646,165.532292 213.523125,165.396979 217.402083,164.54 C238.916771,159.758958 256.236771,147.265104 266.926458,128.907708 C268.820833,125.705312 269.813125,124.442396 270.038646,124.848333 C270.670104,125.975937 271.797708,134.996771 271.797708,139.056146 C271.797708,148.798646 269.858229,157.368437 265.528229,166.524583 C257.09375,184.340729 241.126875,196.834583 221.506562,201.074375 C216.184271,202.201979 204.457187,202.562812 199.405521,201.705833 Z" id="Shape"></path>
                <path d="M270.895625,180.912812 C270.895625,180.822604 271.752604,179.334167 272.79,177.665312 C283.660104,159.894271 286.32125,137.026458 279.781146,116.549167 C278.788854,113.391875 278.74375,112.985937 279.375208,112.489792 C281.179375,111.001354 287.088021,103.784687 289.613854,99.9508333 C292.680938,95.3502083 296.424583,88.1786458 298.138542,83.7133333 L299.175938,80.916875 L302.468542,83.3976042 C309.459688,88.6747917 318.886458,98.1015625 325.29125,106.265417 C326.960104,108.385312 330.433125,113.301667 333.049167,117.225729 C337.469375,123.94625 337.74,124.442396 337.19875,125.57 C336.206458,127.825208 328.223021,139.371875 324.253854,144.378437 C319.202188,150.738125 308.873333,161.066979 303.370625,165.216562 C294.575313,171.846875 286.231042,176.402396 277.886771,179.108646 C272.744896,180.7775 270.895625,181.273646 270.895625,180.912812 Z" id="Shape"></path>
                <path d="M87.4569792,169.546563 C78.3008333,160.21 72.256875,148.573125 69.9114583,135.718438 C68.9642708,130.351042 68.9642708,120.383021 69.9565625,114.609688 C74.7376042,86.1038542 98.3721875,64.7244792 127.464375,62.5594792 C131.974792,62.1986458 139.281667,62.514375 143.025313,63.2360417 C143.9725,63.4164583 145.100104,63.596875 145.460938,63.6419792 C145.866875,63.6870833 146.498333,63.8223958 146.859167,63.9577083 C147.22,64.0930208 149.249688,64.7695833 151.369583,65.4010417 C159.398125,67.7915625 168.464063,73.06875 174.778646,79.0225 C178.702708,82.7210417 182.265938,86.7804167 181.950208,87.14125 C181.814896,87.2314583 179.830312,87.0059375 177.484896,86.5548958 C170.899688,85.3370833 158.541146,85.4723958 151.820625,86.8255208 C144.378438,88.3139583 138.875729,90.1632292 132.200313,93.4558333 C111.723021,103.559167 97.1092708,122.412708 92.283125,145.100104 C91.0202083,150.828333 90.5240625,163.592813 91.3359375,169.41125 C91.6065625,171.486042 91.741875,173.245104 91.6516667,173.380417 C91.5163542,173.470625 89.6670833,171.756667 87.4569792,169.546563 Z" id="Shape"></path>
                <path d="M34.09875,165.306771 C26.9722917,159.939375 17.0944792,149.745833 10.28375,140.679896 C7.03625,136.395 0.4059375,126.336771 0.0451041667,125.164063 C-0.270625,124.261979 2.976875,118.804375 7.80302083,112.083854 C27.1978125,84.8860417 50.606875,69.2348958 75.3239583,67.0247917 C78.48125,66.7090625 81.3228125,66.6188542 81.6836458,66.7090625 C82.1346875,66.8894792 82.1797917,67.385625 81.9091667,68.6034375 C81.6385417,69.7310417 80.4207292,71.3998958 77.4889583,74.421875 C68.3328125,83.9839583 61.8829167,96.613125 58.9060417,110.550313 C57.7784375,115.8275 57.1920833,128.591979 57.8686458,133.508333 L58.3196875,136.620521 L55.1172917,140.093542 C48.9380208,146.814063 43.570625,155.33875 40.0976042,163.863438 C39.1504167,166.16375 38.2483333,168.058125 38.0679167,168.058125 C37.8875,168.058125 36.1284375,166.840313 34.09875,165.306771 Z" id="Shape"></path>
                <path d="M196.248229,154.075833 C192.459479,153.669896 187.092083,152.6325 185.197708,151.910833 C184.160313,151.504896 184.385833,151.324479 188.355,149.339896 C206.035833,140.499479 219.341563,125.209167 225.565938,106.62625 C228.678125,97.3347917 229.129167,94.1775 229.129167,82.81125 C229.129167,74.0159375 228.993854,72.0764583 228.136875,68.0621875 C225.205104,54.5760417 219.431771,43.1195833 210.410938,32.7907292 L206.712396,28.5509375 L209.373542,28.8666667 C224.032396,30.6257292 236.52625,36.7147917 246.990417,47.1789583 C256.146563,56.29 261.829688,66.9345833 264.445729,79.9245833 C265.573333,85.5175 265.573333,97.7407292 264.445729,103.108125 C260.386354,122.367604 248.884792,138.01875 232.106042,146.994479 C227.505417,149.475208 218.890521,152.452083 213.613333,153.354167 C208.516563,154.211146 200.713542,154.526875 196.248229,154.075833 Z" id="Shape"></path>
                <path d="M164.900833,142.078125 C160.480625,138.830625 153.715,131.794375 150.602813,127.19375 L147.806354,123.134375 L149.159479,119.120104 C151.053854,113.572292 154.887708,106.310521 158.450938,101.529479 L161.518021,97.4701042 L166.028438,97.3347917 C172.929375,97.154375 182.536563,98.9585417 188.89625,101.709896 C190.971042,102.566875 191.016146,102.702187 192.14375,106.175208 C194.353854,113.256562 195.706979,124.622812 194.940208,129.809792 C194.624479,131.839479 194.489167,132.019896 190.565104,134.681042 C185.964479,137.838333 179.875417,140.815208 174.598229,142.529167 C168.418958,144.558854 168.238542,144.558854 164.900833,142.078125 Z" id="Shape"></path>
                <path d="M205.990729,115.241146 C201.390104,83.1269792 177.890833,58.3647917 145.731563,51.8246875 C139.416979,50.5617708 123.991354,50.6970833 117.541458,52.0502083 C111.723021,53.313125 104.867188,55.5683333 100.401875,57.6882292 C98.5526042,58.5903125 96.9739583,59.2217708 96.88375,59.1315625 C96.4778125,58.725625 100.13125,51.7344792 102.882604,47.63 C106.265417,42.5332292 111.001354,37.34625 115.196042,34.0085417 C116.864896,32.7005208 118.308229,31.5278125 118.443542,31.3925 C118.894583,30.85125 124.126667,27.874375 127.780104,26.0251042 C132.335625,23.7698958 136.93625,22.19125 142.709583,20.9283333 C149.069271,19.5301042 160.976771,19.5301042 167.471771,20.9283333 C179.830313,23.5894792 189.888542,28.956875 198.819167,37.616875 C220.153438,58.3196875 224.032396,91.5614583 208.065521,116.594271 L206.531979,119.029896 L205.990729,115.241146 Z" id="Shape"></path>
                <path d="M276.939583,90.7946875 C276.57875,55.1623958 251.591042,25.2132292 216.274479,18.2671875 C212.124896,17.4102083 209.553958,17.2297917 202.923646,17.2297917 C193.496875,17.1846875 193.722396,17.590625 200.352708,13.1253125 C219.7475,0.0451041667 247.8925,-3.3828125 280.593021,3.42791667 C288.035208,4.96145833 288.350937,5.09677083 288.621562,6.495 C292.004375,22.3265625 292.951562,28.9117708 293.312396,39.7367708 C293.988958,61.1161458 289.56875,79.0676042 280.096875,93.2754167 C278.473125,95.7110417 277.12,97.695625 277.074896,97.695625 C277.029792,97.695625 276.939583,94.5834375 276.939583,90.7946875 Z" id="Shape"></path>
                <path d="M45.2394792,61.2965625 C42.8489583,45.9160417 44.2020833,24.626875 48.6673958,7.306875 C49.25375,5.09677083 49.25375,5.05166667 51.689375,4.51041667 C57.2822917,3.20239583 65.8971875,1.62375 71.3547917,0.902083333 C78.6165625,-0.0902083333 95.5757292,-0.225520833 101.755,0.631458333 C112.264271,2.11989583 121.961667,4.91635417 129.674479,8.84041667 C133.192604,10.5994792 133.824062,11.095625 133.102396,11.36625 C124.036458,14.6588542 120.473229,16.3728125 114.835208,20.02625 C102.8375,27.7841667 93.365625,38.6542708 87.5471875,51.3285417 L85.788125,55.1623958 L77.8497917,55.4330208 C72.3019792,55.6134375 68.6034375,55.9742708 65.4461458,56.6508333 C60.4395833,57.7333333 52.2757292,60.2591667 48.5771875,61.8829167 C47.2691667,62.4692708 46.00625,62.9654167 45.8258333,62.9654167 C45.6454167,62.9654167 45.3747917,62.1986458 45.2394792,61.2965625 Z" id="Shape"></path>
            </g>
            <g id="layer2">
                <path d="M0,216.5 L0,0 L216.5,0 L433,0 L433,216.5 L433,433 L216.5,433 L0,433 L0,216.5 Z M255.785729,402.960625 C263.859375,400.660313 268.144271,393.443646 266.971562,384.107083 C266.114583,377.25125 262.190521,371.793646 251.726354,362.863021 C249.696667,361.149063 247.306146,358.668333 246.449167,357.405417 C242.931042,352.308646 244.509687,345.948958 249.245625,345.948958 C252.312708,345.948958 253.214792,347.166771 253.936458,352.308646 C254.207083,354.112813 254.522812,355.691458 254.613021,355.781667 C254.703229,355.916979 257.319271,355.60125 260.34125,355.150208 L265.889062,354.293229 L265.75375,352.489063 C265.392917,347.211875 262.957292,341.393438 260.070625,338.912708 C257.680104,336.883021 254.432604,335.980938 249.471146,335.980938 C243.291875,335.980938 239.006979,337.514479 235.849687,340.852188 C231.11375,345.813646 230.076354,354.744271 233.459167,361.690313 C234.767187,364.351458 237.789167,367.553854 246.358958,375.401979 C252.628437,381.130208 253.710937,382.889271 253.710937,387.535 C253.710937,390.556979 253.575625,391.098229 252.628437,392.135625 C251.771458,393.037708 251.094896,393.308333 249.606458,393.308333 C245.953021,393.308333 243.968437,390.376563 243.291875,383.926667 C243.066354,381.626354 242.840833,381.130208 242.254479,381.310625 C241.848542,381.445938 239.2325,381.896979 236.481146,382.302917 C230.707812,383.205 231.023542,382.799063 231.835417,387.805625 C233.233646,396.240104 237.0675,401.246667 243.5625,402.960625 C246.900208,403.862708 252.718646,403.862708 255.785729,402.960625 Z M93.4107292,402.464479 C93.4107292,402.238958 93.9970833,399.081667 94.6736458,395.338021 L95.8914583,388.572396 L101.033333,388.572396 L106.220313,388.572396 L107.347917,395.563542 L108.475521,402.554687 L114.699896,402.69 C119.480938,402.780208 120.879167,402.69 120.879167,402.238958 C120.879167,401.923229 118.082708,387.038854 114.654792,369.177604 L108.385313,336.702604 L100.898021,336.567292 L93.4558333,336.477083 L92.9596875,338.8225 C91.2908333,347.121667 80.7364583,401.833021 80.7364583,402.238958 C80.7364583,402.870417 93.3205208,403.050833 93.4107292,402.464479 Z M193.496875,398.269792 L193.496875,393.759375 L185.738958,393.669167 L177.935937,393.533854 L177.845729,365.118229 L177.755521,336.702604 L171.170312,336.567292 L164.630208,336.431979 L164.630208,369.628646 L164.630208,402.780208 L179.063542,402.780208 L193.496875,402.780208 L193.496875,398.269792 Z M218.755208,369.628646 L218.755208,336.477083 L211.989583,336.477083 L205.223958,336.477083 L205.223958,369.628646 L205.223958,402.780208 L211.989583,402.780208 L218.755208,402.780208 L218.755208,369.628646 Z M300.39375,374.815625 L300.39375,346.896146 L305.490521,346.760833 L310.542188,346.625521 L310.542188,341.664062 L310.542188,336.702604 L293.312396,336.567292 L276.0375,336.477083 L276.0375,341.664062 L276.0375,346.851042 L281.45,346.851042 L286.8625,346.851042 L286.8625,374.815625 L286.8625,402.780208 L293.628125,402.780208 L300.39375,402.780208 L300.39375,374.815625 Z M328.53875,397.728542 C328.989792,394.932083 329.531042,391.684583 329.801667,390.511875 L330.252708,388.346875 L335.304375,388.346875 L340.356042,388.346875 L341.122813,392.541562 C341.52875,394.796771 342.07,398.044271 342.340625,399.758229 L342.881875,402.780208 L349.196458,402.780208 L355.511042,402.780208 L355.240417,401.562396 C354.608958,398.540417 342.791667,337.018333 342.791667,336.747708 C342.791667,336.612396 339.408854,336.522187 335.259271,336.567292 L327.726875,336.702604 L327.366042,338.28125 C327.185625,339.138229 324.389167,353.661771 321.141667,370.530729 C317.894167,387.399687 315.142813,401.562396 315.0075,402.013437 C314.781979,402.735104 315.278125,402.780208 321.231875,402.780208 L327.726875,402.780208 L328.53875,397.728542 Z M151.00875,375.176458 L150.873438,370.981771 L140.725,370.981771 L130.576563,370.981771 L130.44125,375.176458 L130.305938,379.326042 L140.725,379.326042 L151.144063,379.326042 L151.00875,375.176458 Z M147.716146,283.434583 C157.50375,282.216771 166.659896,279.555625 174.778646,275.49625 C180.326458,272.744896 189.121771,266.881354 188.490313,266.385208 C188.400104,266.340104 186.73125,265.708646 184.746667,264.986979 C168.013021,258.988125 152.452083,245.276458 144.51375,229.49 C143.656771,227.730938 142.438958,226.107188 141.717292,225.70125 C129.223438,217.988438 121.826354,211.177708 115.376458,201.390104 C112.58,197.195417 109.422708,191.241667 108.024479,187.543125 C107.573438,186.325313 107.077292,185.378125 106.851771,185.378125 C106.62625,185.378125 105.363333,186.956771 103.965104,188.89625 C100.807813,193.271354 95.6208333,203.690417 93.8166667,209.238229 C92.1478125,214.425208 90.38875,222.859688 89.7572917,229.084063 C88.9454167,237.112604 89.2611458,250.869375 90.4338542,258.897917 C91.2908333,264.806563 94.0872917,278.653542 94.448125,279.104583 C94.8540625,279.465417 107.302813,282.036354 112.760417,282.803125 C125.073854,284.607292 136.440104,284.787708 147.716146,283.434583 Z M309.640104,283.479687 C316.315521,282.712917 323.577292,281.45 329.485938,280.096875 L333.545313,279.104583 L334.808229,273.646979 C337.74,260.34125 339.002917,248.343542 338.596979,236.616458 C338.371458,230.346979 337.559583,221.686979 337.153646,221.100625 C337.108542,221.055521 335.349479,221.732083 333.274688,222.589062 C325.742292,225.836562 316.811667,228.046667 307.835938,228.94875 C304.813958,229.219375 304.543333,229.354687 301.070313,232.151146 C291.102292,240.134583 278.788854,245.7275 266.430313,247.847396 C262.551354,248.478854 262.325833,248.614167 259.664688,251.049792 C255.47,254.838542 250.373229,258.266458 244.284167,261.378646 C241.307292,262.912187 238.510833,264.310417 238.15,264.445729 C236.661563,265.032083 245.411771,271.527083 252.583333,275.135417 C260.656979,279.194792 270.444583,282.126562 280.096875,283.434583 C286.636979,284.291562 302.333229,284.336667 309.640104,283.479687 Z M223.491146,256.642708 C225.746354,256.146562 228.858542,255.289583 230.482292,254.793437 C233.82,253.710937 243.5625,249.065208 243.5625,248.569062 C243.5625,248.388646 241.713229,247.8925 239.503125,247.486562 C227.505417,245.18625 214.109479,238.510833 204.772917,230.256771 C192.639896,219.521979 184.025,204.547396 180.822604,188.625625 C179.063542,179.965625 179.243958,166.705 181.138333,158.405833 C182.716979,151.55 185.558542,144.107812 188.760937,138.469792 C189.617917,136.93625 190.339583,135.583125 190.339583,135.492917 C190.339583,135.402708 189.347292,135.718437 188.084375,136.214583 C169.9525,143.341042 155.609375,158.856875 150.241979,177.124062 C147.490625,186.460625 146.949375,198.0975 148.798646,207.028125 C153.940521,231.474583 171.215417,249.831979 194.804896,255.966146 C203.51,258.221354 215.372396,258.491979 223.491146,256.642708 Z M266.791146,235.985 C296.379479,229.625313 317.082292,204.05125 317.082292,173.966771 C317.082292,169.907396 315.954687,160.886563 315.323229,159.758958 C315.097708,159.353021 314.105417,160.615938 312.211042,163.818333 C301.521354,182.175729 284.201354,194.669583 262.686667,199.450625 C258.807708,200.307604 256.868229,200.442917 247.847396,200.442917 C238.781458,200.442917 236.887083,200.352708 232.917917,199.450625 C218.710104,196.338438 206.396667,189.843438 196.158021,180.055833 L191.106354,175.229688 L191.376979,179.289063 C193.090937,205.404375 212.350417,228.452604 238.15,235.218229 C246.539375,237.428333 258.537083,237.744063 266.791146,235.985 Z M323.171354,214.019271 C331.515625,211.313021 339.859896,206.7575 348.655208,200.127188 C354.157917,195.977604 364.486771,185.64875 369.538437,179.289063 C373.507604,174.2825 381.491042,162.735833 382.483333,160.480625 C383.024583,159.353021 382.753958,158.856875 378.33375,152.136354 C375.717708,148.212292 372.244687,143.295938 370.575833,141.176042 C364.171042,133.012188 354.744271,123.585417 347.753125,118.308229 L344.460521,115.8275 L343.423125,118.623958 C341.709167,123.089271 337.965521,130.260833 334.898437,134.861458 C332.372604,138.695313 326.463958,145.911979 324.659792,147.400417 C324.028333,147.896563 324.073437,148.3025 325.065729,151.459792 C331.605833,171.937083 328.944687,194.804896 318.074583,212.575938 C317.037187,214.244792 316.180208,215.733229 316.180208,215.823438 C316.180208,216.184271 318.029479,215.688125 323.171354,214.019271 Z M136.620521,204.321875 C135.808646,198.503438 136.304792,185.738958 137.567708,180.010729 C142.393854,157.323333 157.007604,138.469792 177.484896,128.366458 C184.160312,125.073854 189.663021,123.224583 197.105208,121.736146 C203.825729,120.383021 216.184271,120.247708 222.769479,121.465521 C225.114896,121.916563 227.099479,122.142083 227.234792,122.051875 C227.550521,121.691042 223.987292,117.631667 220.063229,113.933125 C213.748646,107.979375 204.682708,102.702188 196.654167,100.311667 C194.534271,99.6802083 192.504583,99.0036458 192.14375,98.8683333 C191.782917,98.7330208 191.151458,98.5977083 190.745521,98.5526042 C190.384687,98.5075 189.257083,98.3270833 188.309896,98.1466667 C181.814896,96.9288542 171.440937,97.1092708 164.404687,98.5526042 C147.941667,101.935417 133.1475,112.219167 123.94625,126.562292 C120.022187,132.696458 116.504062,141.897708 115.241146,149.520313 C114.248854,155.293646 114.248854,165.261667 115.196042,170.629063 C116.819792,179.559688 120.879167,189.302188 125.885729,196.383542 C128.637083,200.217396 136.485208,208.696979 136.93625,208.291042 C137.026458,208.155729 136.891146,206.396667 136.620521,204.321875 Z M85.3821875,198.774062 C88.8552083,190.249375 94.2226042,181.724687 100.401875,175.004167 L103.604271,171.531146 L103.153229,168.418958 C102.476667,163.502604 103.063021,150.738125 104.190625,145.460937 C107.1675,131.52375 113.617396,118.894583 122.773542,109.3325 C125.705313,106.310521 126.923125,104.641667 127.19375,103.514062 C127.464375,102.29625 127.419271,101.800104 126.968229,101.619687 C126.607396,101.529479 123.765833,101.619687 120.608542,101.935417 C95.8914583,104.145521 72.4823958,119.796667 53.0876042,146.994479 C48.2614583,153.715 45.0139583,159.172604 45.3296875,160.074687 C45.6905208,161.247396 52.3208333,171.305625 55.5683333,175.590521 C62.3790625,184.656458 72.256875,194.85 79.3833333,200.217396 C81.4130208,201.750937 83.1720833,202.96875 83.3525,202.96875 C83.5329167,202.96875 84.435,201.074375 85.3821875,198.774062 Z M258.897917,188.264792 C264.175104,187.362708 272.79,184.385833 277.390625,181.905104 C294.169375,172.929375 305.670938,157.278229 309.730313,138.01875 C310.857917,132.651354 310.857917,120.428125 309.730313,114.835208 C307.114271,101.845208 301.431146,91.200625 292.275,82.0895833 C281.810833,71.6254167 269.316979,65.5363542 254.658125,63.7772917 L251.996979,63.4615625 L255.695521,67.7013542 C264.716354,78.0302083 270.489688,89.4866667 273.421458,102.972812 C274.278438,106.987083 274.41375,108.926562 274.41375,117.721875 C274.41375,126.517187 274.278438,128.456667 273.421458,132.290521 C268.189375,155.699583 254.207083,173.921667 233.639583,184.250521 C228.768333,186.686146 228.768333,186.641042 234.767188,187.903958 C242.164271,189.482604 250.959583,189.617917 258.897917,188.264792 Z M219.882813,177.439792 C225.16,175.725833 231.249063,172.748958 235.849688,169.591667 C239.77375,166.930521 239.909063,166.750104 240.224792,164.720417 C240.991563,159.533438 239.638438,148.167188 237.428333,141.085833 C236.300729,137.612813 236.255625,137.4775 234.180833,136.620521 C227.821146,133.869167 218.213958,132.065 211.313021,132.245417 L206.802604,132.380729 L203.735521,136.440104 C200.172292,141.221146 196.338438,148.482917 194.444063,154.030729 L193.090938,158.045 L195.887396,162.104375 C198.999583,166.705 205.765208,173.74125 210.185417,176.98875 C213.523125,179.469479 213.703542,179.469479 219.882813,177.439792 Z M256.236771,146.498333 C268.820833,121.826354 263.904479,91.741875 244.10375,72.5275 C235.173125,63.8675 225.114896,58.5001042 212.756354,55.8389583 C206.261354,54.4407292 194.353854,54.4407292 187.994167,55.8389583 C182.220833,57.101875 177.620208,58.6805208 173.064688,60.9357292 C169.41125,62.785 164.179167,65.761875 163.728125,66.303125 C163.592813,66.4384375 162.149479,67.6111458 160.480625,68.9191667 C156.285938,72.256875 151.55,77.4438542 148.167188,82.540625 C145.415833,86.6451042 141.762396,93.63625 142.168333,94.0421875 C142.258542,94.1323958 143.837188,93.5009375 145.686458,92.5988542 C150.151771,90.4789583 157.007604,88.22375 162.826042,86.9608333 C169.275938,85.6077083 184.701563,85.4723958 191.016146,86.7353125 C214.515417,91.5163542 233.684688,105.994792 244.148854,126.968229 C247.621875,133.959375 250.102604,142.078125 251.275313,150.151771 L251.816563,153.940521 L253.350104,151.504896 C254.207083,150.151771 255.515104,147.896562 256.236771,146.498333 Z M325.381458,128.186042 C334.853333,113.978229 339.273542,96.0267708 338.596979,74.6473958 C338.236146,63.8223958 337.288958,57.2371875 333.906146,41.405625 C333.635521,40.0073958 333.319792,39.8720833 325.877604,38.3385417 C293.177083,31.5278125 265.032083,34.9557292 245.637292,48.0359375 C239.006979,52.50125 238.781458,52.0953125 248.208229,52.1404167 C254.838542,52.1404167 257.409479,52.3208333 261.559062,53.1778125 C288.260729,58.455 309.955833,77.3536458 318.435417,102.747292 C320.96125,110.324792 322.133958,117.315938 322.224167,125.705313 C322.224167,129.494063 322.314375,132.60625 322.359479,132.60625 C322.404583,132.60625 323.757708,130.621667 325.381458,128.186042 Z M93.8617708,96.7935417 C97.5603125,95.1697917 105.724167,92.6439583 110.730729,91.5614583 C113.888021,90.8848958 117.586562,90.5240625 123.134375,90.3436458 L131.072708,90.0730208 L132.831771,86.2391667 C138.650208,73.5648958 148.122083,62.6947917 160.119792,54.936875 C165.757812,51.2834375 169.321042,49.5694792 178.386979,46.276875 C179.108646,46.00625 178.477187,45.5101042 174.959062,43.7510417 C167.24625,39.8269792 157.548854,37.0305208 147.039583,35.5420833 C140.860312,34.6851042 123.901146,34.8204167 116.639375,35.8127083 C111.181771,36.534375 102.566875,38.1130208 96.9739583,39.4210417 C94.5383333,39.9622917 94.5383333,40.0073958 93.9519792,42.2175 C89.4866667,59.5375 88.1335417,80.8266667 90.5240625,96.2071875 C90.659375,97.1092708 90.93,97.8760417 91.1104167,97.8760417 C91.2908333,97.8760417 92.55375,97.3798958 93.8617708,96.7935417 Z" id="Shape" fill-opacity="0"></path>
                <path d="M97.425,379.010312 C97.425,377.070833 100.807813,355.465937 101.033333,355.736562 C101.303958,356.052292 104.641667,377.882708 104.641667,379.235833 C104.641667,379.596667 103.604271,379.777083 101.033333,379.777083 C97.8760417,379.777083 97.425,379.686875 97.425,379.010312 Z" id="Shape"></path>
                <path d="M331.515625,379.461354 C331.515625,378.649479 334.763125,356.503333 334.988646,355.871875 C335.349479,354.879583 335.394583,355.150208 337.153646,366.922396 C338.010625,372.876146 338.8225,378.198437 338.957812,378.784792 C339.183333,379.731979 339.093125,379.777083 335.349479,379.777083 C333.229583,379.777083 331.515625,379.641771 331.515625,379.461354 Z" id="Shape"></path>
            </g>
        </g>
    </g>
</svg>