<?xml version="1.0" encoding="UTF-8" standalone="no"?>
<svg
   xmlns:dc="http://purl.org/dc/elements/1.1/"
   xmlns:cc="http://creativecommons.org/ns#"
   xmlns:rdf="http://www.w3.org/1999/02/22-rdf-syntax-ns#"
   xmlns:svg="http://www.w3.org/2000/svg"
   xmlns="http://www.w3.org/2000/svg"
   xmlns:sodipodi="http://sodipodi.sourceforge.net/DTD/sodipodi-0.dtd"
   xmlns:inkscape="http://www.inkscape.org/namespaces/inkscape"
   width="1970"
   height="1970"
   viewBox="0 0 1970 1970"
   version="1.1"
   id="svg17"
   sodipodi:docname="blaliste.svg"
   inkscape:version="0.92.2 5c3e80d, 2017-08-06">
  <metadata
     id="metadata21">
    <rdf:RDF>
      <cc:Work
         rdf:about="">
        <dc:format>image/svg+xml</dc:format>
        <dc:type
           rdf:resource="http://purl.org/dc/dcmitype/StillImage" />
        <dc:title>blliste</dc:title>
      </cc:Work>
    </rdf:RDF>
  </metadata>
  <sodipodi:namedview
     pagecolor="#ffffff"
     bordercolor="#666666"
     borderopacity="1"
     objecttolerance="10"
     gridtolerance="10"
     guidetolerance="10"
     inkscape:pageopacity="0"
     inkscape:pageshadow="2"
     inkscape:window-width="950"
     inkscape:window-height="480"
     id="namedview19"
     showgrid="false"
     fit-margin-left="158"
     fit-margin-right="158"
     fit-margin-top="0"
     fit-margin-bottom="0"
     inkscape:zoom="0.11979695"
     inkscape:cx="985"
     inkscape:cy="985"
     inkscape:window-x="0"
     inkscape:window-y="30"
     inkscape:window-maximized="0"
     inkscape:current-layer="svg17" />
  <!-- Generator: Sketch 43.1 (39012) - http://www.bohemiancoding.com/sketch -->
  <title
     id="title2">blliste</title>
  <desc
     id="desc4">Created with Sketch.</desc>
  <defs
     id="defs6" />
  <g
     id="Page-1"
     style="fill:none;fill-rule:evenodd;stroke:none;stroke-width:1"
     transform="translate(158)">
    <g
       id="blliste"
       style="fill:#ffffff;fill-rule:nonzero">
      <path
         d="M 0,1755 V 1540 H 130 260 V 990 440 H 130 0 V 220 0 h 583 c 642,0 667,2 777,61 178,95 275,341 241,609 -12,90 -66,217 -89,212 -7,-1 -11,4 -10,10 2,7 -3,12 -10,10 -19,-4 -3,20 39,56 42,37 81,105 105,187 15,47 18,94 18,215 0,142 -2,161 -26,231 -25,69 -68,154 -100,196 -42,53 -118,124 -128,118 -6,-3 -9,-1 -8,6 2,7 -15,23 -37,35 l -40,24 H 658 0 Z m 1369,156 c 106,-73 206,-212 244,-341 26,-88 28,-297 4,-390 -30,-113 -93,-214 -155,-249 -15,-9 -13,-14 19,-48 78,-83 101,-156 101,-318 -1,-183 -39,-302 -132,-407 -21,-25 -36,-49 -32,-53 4,-5 2,-5 -5,-1 -6,3 -28,-5 -49,-19 -87,-59 -85,-59 -742,-63 l -602,-3 2,198 3,198 128,3 127,3 v 569 569 l -127,3 -128,3 -3,180 c -1,98 0,185 2,192 4,10 134,13 646,13 h 641 z"
         id="Shape"
         inkscape:connector-curvature="0" />
      <path
         d="M 80,1755 V 1620 H 210 340 V 990 360 H 210 80 V 220 80 h 529 c 611,0 642,3 740,69 96,65 152,171 173,325 20,153 -4,279 -67,353 -33,39 -125,93 -158,93 -10,0 -17,5 -17,10 0,6 14,10 30,10 55,0 178,69 164,91 -3,5 0,8 7,7 19,-5 77,123 89,194 24,151 6,307 -50,419 -37,74 -97,152 -111,144 -5,-4 -6,2 -2,11 4,12 3,15 -5,10 -7,-4 -12,-3 -12,1 0,5 -19,23 -42,41 l -42,32 H 693 80 Z m 1035,-155 c 130,-63 141,-332 19,-457 -26,-27 -72,-33 -251,-33 -144,0 -184,-3 -180,-12 2,-7 24,-75 47,-150 l 43,-138 h 89 c 112,0 168,-14 206,-52 49,-47 72,-105 72,-181 0,-108 -45,-186 -119,-207 -20,-5 -118,-10 -218,-10 H 640 v 630 630 h 217 c 197,0 220,-2 258,-20 z"
         id="path9"
         inkscape:connector-curvature="0" />
      <path
         d="m 700,1365 v -195 h 186 186 l 33,33 c 72,72 78,256 11,322 -30,31 -59,35 -235,35 H 700 Z m 395,150 c 48,-62 60,-176 26,-252 -11,-23 -16,-45 -13,-49 4,-4 1,-4 -6,0 -7,4 -15,1 -18,-8 -5,-12 -36,-15 -185,-16 l -179,-1 v 176 176 l 180,-3 c 165,-3 180,-5 195,-23 z"
         id="path11"
         inkscape:connector-curvature="0" />
      <path
         d="M 700,663 V 420 h 161 c 88,0 169,4 179,10 29,15 60,77 66,133 4,42 1,60 -18,96 -40,77 -60,86 -209,89 l -129,4 -24,76 -25,77 z m 180,57 c 136,0 136,0 162,-27 61,-64 54,-208 -11,-243 -11,-5 -85,-10 -165,-10 H 720 v 152 c 0,118 3,149 12,140 8,-8 56,-12 148,-12 z"
         id="path13"
         inkscape:connector-curvature="0" />
    </g>
  </g>
</svg>
