<?xml version="1.0" encoding="UTF-8" standalone="no"?>
<svg
   xmlns:dc="http://purl.org/dc/elements/1.1/"
   xmlns:cc="http://creativecommons.org/ns#"
   xmlns:rdf="http://www.w3.org/1999/02/22-rdf-syntax-ns#"
   xmlns:svg="http://www.w3.org/2000/svg"
   xmlns="http://www.w3.org/2000/svg"
   xmlns:sodipodi="http://sodipodi.sourceforge.net/DTD/sodipodi-0.dtd"
   xmlns:inkscape="http://www.inkscape.org/namespaces/inkscape"
   width="668.99799"
   height="668.99799"
   viewBox="0 0 668.99798 668.99799"
   version="1.1"
   id="svg31"
   sodipodi:docname="byogvel.svg"
   inkscape:version="0.92.2 5c3e80d, 2017-08-06">
  <metadata
     id="metadata35">
    <rdf:RDF>
      <cc:Work
         rdf:about="">
        <dc:format>image/svg+xml</dc:format>
        <dc:type
           rdf:resource="http://purl.org/dc/dcmitype/StillImage" />
        <dc:title>17424744_1842649062661649_5424129180361381202_n</dc:title>
      </cc:Work>
    </rdf:RDF>
  </metadata>
  <sodipodi:namedview
     pagecolor="#ffffff"
     bordercolor="#666666"
     borderopacity="1"
     objecttolerance="10"
     gridtolerance="10"
     guidetolerance="10"
     inkscape:pageopacity="0"
     inkscape:pageshadow="2"
     inkscape:window-width="950"
     inkscape:window-height="480"
     id="namedview33"
     showgrid="false"
     fit-margin-top="0"
     fit-margin-left="50.115695"
     fit-margin-right="50.115695"
     fit-margin-bottom="0"
     inkscape:zoom="0.35276532"
     inkscape:cx="334.49808"
     inkscape:cy="334.49797"
     inkscape:window-x="0"
     inkscape:window-y="30"
     inkscape:window-maximized="0"
     inkscape:current-layer="svg31" />
  <!-- Generator: Sketch 43.1 (39012) - http://www.bohemiancoding.com/sketch -->
  <title
     id="title2">17424744_1842649062661649_5424129180361381202_n</title>
  <desc
     id="desc4">Created with Sketch.</desc>
  <defs
     id="defs6" />
  <g
     id="Page-1"
     style="fill:none;fill-rule:evenodd;stroke:none;stroke-width:1"
     transform="translate(49.99808)">
    <g
       id="17424744_1842649062661649_5424129180361381202_n"
       style="fill:#ffffff;fill-rule:nonzero">
      <path
         d="M 278.82002,668.165 C 266.45772,664.32401 231.70963,642.11308 204.81327,620.90414 171.40164,594.51822 129.13594,548.92736 104.91251,513.35646 45.773928,425.84873 11.527011,312.12207 1.3364651,170.17249 -0.5011744,144.95557 -0.33411627,142.11657 2.3388139,136.77259 8.6870229,124.24763 15.536406,119.57164 30.738696,117.90165 63.315032,114.06066 88.54081,102.70469 161.87933,58.449825 228.03435,18.536945 266.79184,0 283.83177,0 c 16.03758,0 63.48209,21.876935 111.92895,51.435846 47.27745,28.890914 59.13857,35.737893 80.1879,46.425861 22.88696,11.355963 37.58808,16.532953 55.79742,19.204943 22.21873,3.17299 26.7293,5.51098 33.74574,17.53495 4.00939,6.67998 4.00939,7.01398 2.33881,32.5649 -11.86112,182.69745 -64.48444,317.96705 -161.2111,414.99376 -28.90105,29.05791 -44.2704,41.58288 -76.84674,63.29281 -33.07751,21.87694 -41.43041,25.55092 -50.95273,22.71193 z m 9.52232,-55.10983 c 12.69641,-5.84498 14.19994,-15.86496 3.84233,-27.72192 -7.51761,-8.68397 -7.85173,-10.18697 -4.00939,-15.53095 2.0047,-2.839 4.00939,-3.67399 7.85173,-3.33999 4.67763,0.50099 5.51292,1.33599 6.34821,6.34598 l 0.83529,5.84498 1.33647,-6.17898 c 1.67058,-8.01598 0.50117,-9.68597 -7.51762,-9.68597 -5.1788,0 -7.85173,1.16899 -11.69407,4.84298 -7.01644,7.01398 -6.51527,13.02596 1.83764,22.71194 3.67528,4.17498 6.68232,8.85097 6.68232,10.18697 0,4.17498 -9.35525,12.35796 -14.03288,12.35796 -3.00704,0 -5.01174,-1.503 -6.84938,-5.00999 -2.83999,-5.51098 -5.34586,-6.34598 -6.84939,-2.50499 -1.67058,4.34199 5.51292,10.52097 12.69642,10.68797 1.33647,0 5.67998,-1.336 9.52232,-3.00599 z M 275.81298,568.2993 c 3.34116,-7.51498 2.83998,-13.86096 -1.16941,-13.86096 -1.67058,0 -2.17176,2.171 -2.0047,7.18098 0.33412,6.17898 -0.66823,8.68398 -6.68232,16.36595 -3.84234,5.00999 -10.35761,12.35797 -14.53406,16.53295 l -7.68467,7.34798 v -12.52496 c 0,-9.18497 0.83529,-14.19496 3.34116,-19.03794 1.83764,-3.67399 3.34116,-6.84698 3.34116,-7.01398 0,-1.503 -10.85878,-0.167 -15.70346,1.83699 -10.19055,4.34199 -16.70582,18.36995 -9.52232,20.70794 1.83764,0.668 2.17176,-0.334 1.33647,-4.67599 -1.00235,-4.34198 -0.33412,-6.01198 3.67528,-10.18697 2.67293,-2.67199 6.51526,-4.84298 8.3529,-4.84298 4.0094,0 4.17646,1.002 1.00235,6.67998 -2.50587,4.34198 -3.1741,21.20893 -1.50352,31.8969 l 1.00235,6.01198 16.87287,-17.70194 c 9.35525,-9.85297 18.04228,-20.70794 19.87992,-24.71593 z m 68.82795,40.74788 c 1.83764,-1.336 2.83999,-3.84099 2.33881,-6.34598 -0.66823,-5.00999 -3.84234,-4.50899 -3.84234,0.668 0,4.00798 0.50118,3.84099 -17.37404,3.17299 l -8.01879,-0.334 4.67763,-15.86495 c 2.50587,-8.85098 5.84703,-17.86895 7.1835,-20.03994 2.83998,-4.34199 7.51761,-5.34399 10.52466,-2.338 2.83999,2.83899 6.18115,0.167 3.67528,-2.83899 -3.00705,-3.67399 -10.69172,-2.83899 -16.3717,1.83699 -5.01174,4.34199 -7.85173,10.68797 -12.69642,28.05592 -2.0047,7.51498 -3.67528,10.01997 -7.1835,11.68997 -4.17645,1.83699 -3.67528,2.00399 6.34821,3.00599 19.71286,1.66999 27.73165,1.50299 30.7387,-0.668 z m -31.57399,-98.86371 c 21.21638,-2.17099 21.38344,-2.33799 28.90106,-19.70594 9.52231,-21.87693 14.86817,-39.07788 19.5458,-62.12381 3.67528,-17.86895 10.02349,-68.97079 8.68702,-70.30679 -0.16706,-0.167 -6.68232,1.66999 -14.19994,4.50899 -7.68467,2.67199 -14.70112,4.84298 -15.70346,4.84298 -1.33647,0 -1.50353,-4.84298 -0.66824,-15.53095 1.00235,-15.53096 1.00235,-15.53096 -3.50822,-19.53894 -2.67293,-2.171 -9.52231,-8.34998 -15.36934,-13.69396 l -10.69173,-9.68597 -5.34586,3.33999 c -3.00704,1.83699 -6.18115,3.33999 -7.35055,3.33999 -1.33647,0 -1.83764,-10.85497 -1.83764,-38.07589 v -38.24289 l -4.17646,-3.84098 c -3.50822,-3.33999 -4.17645,-5.34399 -4.17645,-14.02796 0,-9.51897 -0.66823,-11.02197 -8.51997,-22.21094 l -8.3529,-12.19096 -5.67998,4.17499 c -5.01174,4.00799 -5.51292,5.17698 -6.68232,16.69995 -0.66824,6.84698 -1.83764,12.52496 -2.67293,12.52496 -0.83529,0 -2.17176,1.67 -3.00705,3.84099 -2.17176,5.51098 -4.17645,39.57888 -2.33881,39.57888 0.66823,0 3.50822,2.00399 6.34821,4.50899 l 4.84468,4.34199 -0.50117,32.0639 -0.50118,32.0639 4.51057,2.83899 c 2.50587,1.67 4.67763,2.672 5.01175,2.338 1.1694,-1.336 1.67058,-133.2656 0.33411,-133.7666 -0.66823,-0.167 -1.1694,-4.50899 -0.83529,-9.51897 l 0.50118,-9.01798 8.01879,12.35797 c 7.01644,11.35596 7.85173,13.35996 7.85173,22.37793 0,7.68198 0.83529,10.85497 3.34116,13.52696 3.17411,3.33999 3.34116,5.84498 3.50822,54.44184 0,27.88891 0.50118,53.43984 1.00235,56.77983 0.66823,5.17698 2.0047,6.67998 8.01879,9.68597 3.84234,1.83699 7.51762,3.50699 8.18585,3.50699 0.50117,0 1.00235,-10.52097 1.00235,-23.54693 0,-12.85897 0.66823,-23.21293 1.33646,-22.87894 0.83529,0.334 6.68233,5.34399 13.1976,11.35597 l 11.69407,10.85497 -1.00235,15.69795 -1.00235,15.69795 -15.36935,5.17699 c -8.35291,2.83899 -15.70347,5.51098 -16.03758,6.01198 -0.50118,0.501 -1.33647,12.19096 -2.0047,25.88492 -1.67058,43.08588 -4.51057,83.49975 -7.01644,100.03271 -0.83529,6.17898 -0.83529,6.34598 3.84234,5.51098 2.67293,-0.501 9.35525,-1.503 14.86817,-2.004 z m -53.29154,-2.00399 c -2.50588,-8.85097 -4.34352,-18.03595 -6.68233,-33.0659 -2.33881,-15.86495 -3.34116,-22.37793 -5.1788,-38.74389 -1.83764,-16.69995 -4.0094,-53.43984 -4.51057,-77.65476 -0.50118,-23.88093 -0.83529,-26.38592 -3.34116,-26.38592 -2.67293,0 -3.00705,-1.67 -2.83999,-12.85896 0,-7.18098 0.66823,-22.71194 1.33646,-34.7359 0.66824,-11.85697 1.00235,-22.04393 0.83529,-22.37793 -0.33411,-0.334 -6.01409,3.00599 -12.86347,7.34797 l -12.3623,7.84898 -1.16941,10.01997 c -0.50118,5.67798 -1.00235,21.04194 -1.00235,34.0679 v 24.04793 l -8.51996,4.67598 -8.51997,4.50899 1.16941,16.36595 c 0.50117,8.85097 0.66823,16.19895 0.16706,16.19895 -0.50118,0 -10.02349,-4.50899 -21.38345,-10.18697 l -20.38109,-10.01997 -11.86113,2.83899 c -12.3623,3.00599 -31.40692,4.00799 -40.26101,2.004 l -5.345855,-1.169 3.007045,13.69396 c 4.34351,18.87094 9.68937,34.0679 19.37875,53.77384 9.85642,20.03994 17.87521,28.72391 36.91984,39.91288 12.52936,7.18098 40.59513,20.20694 40.59513,18.70394 0,-0.33399 -3.17411,-5.84498 -7.01644,-12.02396 -13.53171,-22.37793 -26.7293,-57.94883 -32.07517,-86.67274 -4.17645,-22.37793 -4.51056,-25.88492 -3.00704,-25.88492 0.83529,0 10.85878,4.50898 22.38579,9.85297 19.37874,9.18497 21.04932,10.35397 21.71756,15.02995 0.50117,2.83899 0,5.17699 -0.8353,5.17699 -0.83529,0 -8.18584,-3.33999 -16.53875,-7.51498 -8.35291,-4.17499 -15.53641,-7.18098 -16.03758,-6.67998 -1.33647,1.169 -1.16941,1.33599 17.5411,10.68797 12.86348,6.34598 17.37405,9.51897 17.87522,12.19096 0.50118,2.17099 2.0047,10.01997 3.50822,17.53495 5.01175,26.38592 20.88227,72.64478 26.56225,77.15377 2.00469,1.66999 17.20699,4.67598 24.89166,5.00998 3.84234,0.167 4.51057,-0.501 3.84234,-2.67199 z m 22.38579,-134.7686 c -2.0047,-2.00399 -2.33882,77.32077 -0.33412,114.22766 1.00235,19.37194 1.33647,10.52097 1.67058,-44.08787 0.16706,-44.58886 -0.16706,-68.97079 -1.33646,-70.13979 z m 6.18115,128.92362 c -0.33412,-2.171 -0.66824,-0.835 -0.66824,2.83899 -0.16705,3.67399 0.16706,5.34398 0.66824,3.84099 0.33411,-1.67 0.33411,-4.67599 0,-6.67998 z m 65.65384,-16.36595 c 3.34117,-6.84698 9.35526,-21.87694 13.03054,-33.3999 8.85408,-27.55492 17.5411,-71.80979 14.03288,-71.80979 -0.83529,0 -2.50587,7.01398 -3.67528,15.53095 -4.51057,32.73191 -16.53875,73.31279 -28.56694,96.35872 -3.67528,6.84698 -5.34586,11.02196 -3.84234,9.18497 1.33647,-1.83699 5.51292,-9.01797 9.02114,-15.86495 z m -79.01849,6.34598 c -0.50118,-1.169 -0.83529,-0.334 -0.83529,2.00399 0,2.338 0.33411,3.17299 0.83529,2.171 0.33411,-1.169 0.33411,-3.17299 0,-4.17499 z m 95.55725,-22.21094 c 0,-0.83499 -1.83764,1.67 -4.0094,5.84499 -2.17175,4.17498 -4.00939,8.34997 -4.00939,9.18497 0,1.002 1.83764,-1.67 4.00939,-5.84498 2.17176,-4.17499 4.0094,-8.18298 4.0094,-9.18498 z m -78.18321,-54.94283 c 0.50118,-23.54693 0,-36.73989 -1.00235,-37.24089 -1.1694,-0.334 -1.67058,18.36994 -1.83764,53.43984 -0.16705,34.0679 0.33412,47.76186 1.00235,37.07389 0.66823,-9.18497 1.50353,-33.2329 1.83764,-53.27284 z m 113.09836,58.78382 c 14.367,-22.04393 29.06811,-57.28083 34.41397,-82.49775 1.16941,-5.00999 0.83529,-5.34398 -5.1788,-6.84698 l -6.34821,-1.503 0.33412,-8.18297 c 1.33646,-26.55292 0.83529,-79.82576 -0.66823,-88.00874 -0.8353,-5.34398 -1.16941,-9.68597 -0.50118,-9.68597 0.66823,0 4.34351,4.67599 8.35291,10.52097 11.35995,16.36595 20.21403,28.05592 27.06342,35.90489 6.34821,7.01398 6.51526,7.01398 5.51291,18.36995 -3.84233,44.75586 -10.69172,69.47179 -29.40223,105.54368 -4.51057,8.68398 -6.51526,14.02796 -4.67763,11.68997 4.51057,-5.34399 17.37405,-30.89491 22.71991,-45.08987 6.34821,-16.69995 12.19525,-43.58687 13.69877,-63.79381 l 1.50352,-18.53694 -12.69642,-16.03195 c -7.01644,-8.85098 -13.36465,-16.19896 -14.03288,-16.53296 -0.66823,-0.33399 -1.33646,-1.33599 -1.33646,-2.00399 0,-0.835 -3.50823,-6.51298 -7.85174,-12.69196 l -7.68467,-11.18897 -10.35761,1.002 c -5.67997,0.501 -15.36934,2.33799 -21.5505,3.84099 -9.85643,2.50499 -11.02583,3.17299 -10.02348,6.01198 0.50117,1.837 1.1694,21.04194 1.1694,42.41787 l 0.16706,39.07789 13.03054,7.68197 c 7.1835,4.17499 18.04228,9.51897 24.39048,11.68997 10.52467,3.67399 11.1929,4.17499 10.69172,8.51697 -1.67058,16.36595 -18.20933,57.28083 -30.90575,76.98677 -4.34351,6.67998 -7.85173,12.52497 -7.85173,12.85896 0,2.171 1.83764,0 8.01879,-9.51897 z m -132.14299,0.835 c -0.50117,-1.66999 -0.83529,-0.334 -0.83529,2.83899 0,3.17299 0.33412,4.50899 0.83529,3.00599 0.33412,-1.66999 0.33412,-4.34198 0,-5.84498 z m 116.77364,-7.34798 c 2.33881,-4.67598 4.00939,-8.85097 3.67528,-9.18497 -0.33412,-0.334 -2.67293,3.50699 -5.1788,8.51697 -2.50588,5.00999 -4.17646,9.18498 -3.67528,9.18498 0.50117,0 2.67293,-3.84099 5.1788,-8.51698 z m -8.01879,-0.668 c -0.50118,-0.50099 -1.50352,0.334 -2.0047,2.004 -1.00235,2.33799 -0.83529,2.50499 0.83529,1.002 1.16941,-1.169 1.67058,-2.505 1.16941,-3.006 z M 272.30476,417.83275 c -1.16941,-45.59086 -1.83764,-54.27484 -4.17646,-51.93684 -0.66823,0.66799 1.67058,69.30479 3.00705,87.50773 0.33412,4.67599 0.66823,10.18697 0.83529,12.35797 0.16706,2.17099 0.50117,3.67399 0.83529,3.33999 0.33412,-0.334 0.16706,-23.37993 -0.50117,-51.26885 z m 114.26776,7.18098 c 5.67998,-22.54493 8.68702,-39.24488 6.68232,-37.24089 -0.66823,0.501 -3.00704,10.35397 -5.1788,21.70994 -2.17175,11.35596 -6.18115,27.05391 -8.85408,34.90289 -7.1835,20.70794 -7.35056,21.54294 -2.50587,11.52297 2.33881,-5.00999 6.84938,-18.87095 9.85643,-30.89491 z m 6.51527,14.02796 c 6.3482,-18.87095 13.03053,-45.08987 11.86112,-46.42586 -1.33646,-1.169 -1.67058,-0.167 -5.67997,17.36794 -3.34117,14.19496 -6.34821,23.54693 -15.87053,51.76985 -0.66823,1.83699 0,1.336 1.33647,-1.002 1.33646,-2.50499 5.1788,-12.19096 8.35291,-21.70993 z m 15.03523,-17.20095 c 2.33881,-7.68198 4.51057,-16.86695 5.01174,-20.37394 0.83529,-5.67798 0.66823,-5.34398 -1.50352,1.83699 -1.33647,4.67599 -5.34586,17.03395 -8.85408,27.55492 -3.67528,10.52097 -7.01644,20.70794 -7.68468,22.54493 -0.50117,1.837 1.16941,-1.33599 4.0094,-7.18097 2.83999,-5.67799 6.84938,-16.69995 9.02114,-24.38193 z m -148.18057,9.51897 c -0.33411,-2.67199 -0.66823,-0.501 -0.66823,4.50899 0,5.00998 0.33412,7.18097 0.66823,4.67598 0.33412,-2.67199 0.33412,-6.67998 0,-9.18497 z m -76.34556,-10.18697 c 0,-1.83699 -13.36465,-9.35197 -14.367,-8.18298 -0.50118,0.501 2.33881,2.672 6.34821,5.00999 8.68702,5.00998 8.01879,4.84299 8.01879,3.17299 z m 74.34087,-33.5669 c -0.83529,-16.69995 -2.0047,-28.55691 -2.83999,-28.55691 -1.00235,0 -1.33647,1.66999 -0.83529,3.84098 0.50117,2.004 1.50352,15.19696 2.17175,29.22492 0.50118,14.02796 1.50353,25.21692 1.83764,24.71592 0.50118,-0.501 0.33412,-13.52696 -0.33411,-29.22491 z m 159.03934,26.21892 c -0.50117,-1.33599 -1.00235,-0.835 -1.00235,1.002 -0.16706,1.83699 0.33412,2.83899 0.83529,2.17099 0.50118,-0.501 0.66823,-2.00399 0.16706,-3.17299 z m -229.20376,-2.67199 c -4.00939,-3.67399 -20.88227,-12.02396 -20.88227,-10.52097 0,1.002 4.34352,4.00799 9.68938,6.67998 9.52231,5.00999 14.19994,6.51298 11.19289,3.84099 z m 230.87434,-4.00799 c -0.50117,-1.33599 -1.00235,-0.835 -1.00235,1.002 -0.16706,1.83699 0.33412,2.83899 0.83529,2.17099 0.50118,-0.501 0.66824,-2.00399 0.16706,-3.17299 z m 1.67058,-6.67998 c -0.50117,-1.33599 -1.00235,-0.835 -1.00235,1.002 -0.16705,1.83699 0.33412,2.83899 0.83529,2.17099 0.50118,-0.501 0.66824,-2.00399 0.16706,-3.17299 z m 25.39284,-54.27484 c -2.17176,-2.67199 -4.17646,-5.00998 -4.34351,-5.34398 -0.33412,-0.334 -1.00235,-0.334 -1.50353,0.167 -0.83529,0.835 7.51762,9.68597 9.1882,9.68597 0.50117,0 -1.00235,-2.00399 -3.34116,-4.50899 z m 4.17645,-11.35596 c -7.85173,-9.01797 -9.02114,-10.01997 -9.02114,-8.34998 0,1.169 15.20229,17.53495 16.20464,17.53495 0.33412,0 -2.83999,-4.17499 -7.1835,-9.18497 z m -0.66823,-15.36395 c -2.17176,-4.00799 -10.69172,-13.69396 -9.02114,-10.52097 1.83764,3.50699 9.35525,13.35996 10.19055,13.35996 0.33411,0 -0.16706,-1.336 -1.16941,-2.83899 z m 84.53141,-54.44184 c -2.67293,-2.004 -2.33881,-2.505 3.84234,-5.34399 3.84234,-1.66999 6.84938,-3.67398 6.84938,-4.34198 0,-0.668 -2.00469,-2.839 -4.34351,-4.67599 -5.67997,-4.50899 -15.70346,-4.67599 -20.88226,-0.334 l -4.0094,3.33999 7.1835,6.67998 c 4.0094,3.84099 8.85408,6.84698 10.85878,6.84698 3.34116,0 3.34116,-0.167 0.50117,-2.17099 z M 50.785672,234.9683 c 2.67293,-14.52896 2.004698,-21.20894 -2.338814,-21.20894 -4.677627,0 -5.34586,1.83699 -1.503523,4.84299 3.341163,2.83899 3.341163,3.33999 1.169407,17.70194 l -2.171756,14.69596 -5.512918,-6.34598 C 36.752789,240.47928 34.91515,236.47129 34.91515,233.2983 v -5.00998 l -4.343512,4.00799 c -5.512918,5.00998 -9.188197,13.19296 -7.851732,17.86894 0.835291,3.67399 4.844686,6.01198 6.348209,3.84099 0.501174,-0.835 -0.334116,-1.83699 -1.670581,-2.50499 -3.174105,-1.169 -3.174105,-7.68198 -0.167058,-12.02397 2.338813,-3.17299 2.505872,-3.17299 3.675279,0.167 0.668232,1.837 4.677627,7.01398 8.854081,11.35597 l 7.684674,8.01598 0.501174,-5.51099 c 0.334116,-3.00599 1.503523,-11.35596 2.839988,-18.53694 z m 462.416908,10.35397 c -3.00704,-0.835 -5.51292,-1.837 -5.51292,-2.171 0,-0.501 2.67293,-2.33799 5.84704,-4.34198 5.01174,-3.17299 6.34821,-3.33999 8.68702,-1.336 2.50588,1.83699 2.67293,1.83699 1.67058,-1.002 -0.83529,-2.00399 -0.16705,-3.84099 1.67058,-5.34398 2.67294,-2.17099 2.33882,-2.33799 -2.83998,-2.004 -3.34117,0.167 -6.84939,-0.33399 -8.01879,-1.00199 -1.16941,-0.668 -2.0047,-0.501 -2.0047,0.501 0,0.83499 0.83529,1.83699 1.83764,2.17099 1.00235,0.334 -1.16941,2.67199 -5.01175,5.17698 -10.19054,6.84698 -9.02113,11.02197 3.17411,10.85497 h 5.84703 z M 68.827951,237.64029 c 1.336465,-1.67 3.007046,-5.17699 3.675279,-8.01598 l 1.169406,-5.00998 -3.675278,5.67798 c -5.011744,8.01598 -8.185849,4.50899 -3.174105,-3.84099 5.34586,-9.18497 1.83764,-14.69595 -5.178802,-7.68197 -4.176453,4.17498 -4.51057,14.36195 -0.501174,18.70394 3.341162,3.67399 4.343511,3.67399 7.684674,0.167 z m 23.722255,0.167 c 3.50822,-1.503 7.517614,-9.35197 7.517614,-15.19696 0,-2.50499 -1.002347,-8.51697 -2.338812,-13.35996 -2.171756,-8.34997 -2.171756,-8.85097 1.336465,-11.18896 l 3.508217,-2.505 -4.17645,0.334 c -3.675279,0.334 -4.176453,-0.334 -4.677628,-5.67798 -0.501174,-5.00998 0.167059,-6.17898 3.842337,-7.84898 4.677631,-2.17099 5.679981,-5.84498 1.503524,-5.00998 -5.178802,1.002 -9.689372,9.18497 -9.355256,17.03395 0.167058,5.17698 -0.501174,7.68198 -2.171756,8.34997 -1.336464,0.501 -2.505872,1.837 -2.505872,2.83899 0,1.336 0.668233,1.336 2.505872,-0.16699 3.174105,-2.672 3.174105,-2.672 6.515268,8.68397 3.675279,12.69196 3.341162,15.86495 -1.503523,19.03794 -5.847035,3.84099 -5.847035,6.84698 0,4.67599 z m 408.457134,-9.85297 c 0,-6.34598 2.50587,-7.84898 4.17645,-2.50499 1.16941,3.84098 4.17646,4.50898 4.17646,0.83499 0,-3.33999 -7.1835,-7.84897 -10.69172,-6.51298 -1.67058,0.668 -2.67293,3.00599 -2.67293,6.34598 0,3.00599 -0.50118,5.84499 -1.00235,6.51298 -1.83764,1.837 -5.67998,-0.83499 -5.67998,-4.00798 0,-3.67399 -2.50587,-4.17499 -3.84234,-0.835 -0.50117,1.33599 0.33412,3.50699 1.83764,4.84298 7.1835,6.17899 13.69877,4.00799 13.69877,-4.67598 z M 87.872578,220.94034 c 1.169407,-3.00599 1.503523,-5.51098 0.668232,-5.51098 -0.83529,0 -2.171755,1.50299 -2.67293,3.50698 -1.670581,5.00999 -3.341162,2.338 -6.682325,-11.35596 l -3.174105,-12.02397 4.176454,-3.33999 c 4.677627,-3.67398 3.50822,-6.34598 -1.670582,-3.67398 -3.675278,2.00399 -6.18115,8.68397 -5.34586,14.36195 0.167058,1.837 1.83764,8.01598 3.842337,13.86096 3.842337,11.85697 7.1835,13.19296 10.858779,4.17499 z m 396.428952,2.83899 c 0,-0.835 -0.83529,-1.66999 -2.0047,-1.66999 -1.16941,0 0.50117,-2.505 3.34116,-5.51099 3.00705,-3.00599 4.84469,-6.01198 4.34351,-6.67998 -2.00469,-1.83699 -10.69172,-1.33599 -10.69172,0.668 0,1.002 1.16941,1.336 3.00705,0.668 1.50352,-0.501 0.33411,1.50299 -2.83999,4.84298 -3.00705,3.17299 -5.01174,6.51298 -4.51057,7.51498 1.50352,2.33799 9.35526,2.50499 9.35526,0.167 z m -8.35291,-8.34997 c 0,-0.668 -1.83764,-0.835 -4.17645,-0.334 -6.34821,1.16899 -4.84469,-1.503 5.84703,-10.01997 9.52232,-7.84898 13.86583,-9.51898 15.87052,-6.34598 1.50353,2.50499 4.17646,2.00399 4.17646,-0.668 0,-2.83899 -3.67528,-4.34199 -10.19055,-4.34199 -3.67528,0 -7.51762,2.50499 -16.03758,10.68797 -11.02584,10.52097 -11.19289,10.85497 -7.35056,12.35796 4.34351,1.503 11.86113,0.835 11.86113,-1.33599 z m -29.56929,-2.672 c 9.52231,-3.17299 22.38579,-14.19495 20.38109,-17.20095 -1.00235,-1.66999 -2.83999,-0.66799 -6.84938,4.17499 l -5.67998,6.51298 1.00235,-7.01398 c 1.16941,-7.84897 -1.00235,-12.19096 -6.01409,-12.19096 -1.67058,0 -3.84234,-1.169 -5.01174,-2.50499 -1.16941,-1.336 -3.50823,-2.50499 -5.17881,-2.50499 -4.34351,0 -4.00939,-2.004 1.00235,-6.67998 3.50822,-3.33999 4.67763,-3.67399 8.35291,-2.004 5.1788,2.33799 5.84703,2.50499 5.84703,0.334 0,-2.83899 -6.84938,-5.17698 -11.86113,-4.17499 -7.01644,1.503 -22.05167,20.20694 -19.71285,24.54893 3.50822,6.51298 17.03992,4.50899 21.38344,-3.17299 1.50352,-2.83899 1.83764,-2.83899 4.34351,-0.334 3.50822,3.33999 1.83764,13.86096 -2.67293,18.36994 -3.50822,3.50699 -10.02349,4.17499 -15.03523,1.503 -2.50588,-1.336 -3.17411,-1.169 -3.17411,0.668 0,4.84298 7.68468,5.51098 18.87757,1.66999 z m -330.60804,-6.01198 c 1.50352,-2.00399 2.67293,-4.84298 2.67293,-6.17898 0,-1.83699 -0.83529,-1.336 -2.67293,1.169 -2.17176,3.33999 -7.35056,5.17698 -7.35056,2.67199 0,-0.501 2.0047,-3.50699 4.34351,-6.67998 4.34351,-5.67798 4.51057,-10.68797 0.16706,-10.68797 -6.0141,0 -10.85878,11.35597 -8.01879,18.87094 2.17175,5.51099 7.35055,6.01199 10.85878,0.835 z m 385.23605,-3.00599 c 0,-0.835 -1.16941,-1.66999 -2.50587,-1.66999 -1.33647,0 -2.50587,0.83499 -2.50587,1.66999 0,1.002 1.1694,1.67 2.50587,1.67 1.33646,0 2.50587,-0.668 2.50587,-1.67 z M 130.4724,192.38342 c -0.50117,-6.84698 0,-9.01797 3.00705,-12.02396 2.0047,-2.00399 3.1741,-4.50899 2.83999,-5.51098 -0.33412,-1.169 -2.17176,0.501 -4.0094,3.50699 -2.33881,3.67399 -3.84234,4.84298 -4.34351,3.33999 -0.66823,-1.503 -1.83764,-1.169 -4.34351,1.83699 -2.0047,2.17099 -3.50822,4.67599 -3.50822,5.67798 0,1.002 1.00235,0.334 2.33881,-1.33599 2.0047,-2.83899 2.33881,-2.338 3.50822,5.67798 1.50353,11.52297 5.1788,10.68797 4.51057,-1.169 z m 19.71286,-1.00199 c 1.00235,-1.336 2.83999,-2.171 4.0094,-1.67 1.1694,0.501 3.34116,-0.668 5.01174,-2.50499 2.17176,-2.33799 4.34351,-3.00599 7.68467,-2.33799 3.34117,0.66799 5.67998,-0.167 8.18585,-2.672 4.67763,-4.67598 4.51057,-8.18297 -0.66823,-10.52096 -2.33881,-1.002 -4.17645,-3.00599 -4.17645,-4.34199 0,-1.67 1.1694,-2.00399 4.17645,-1.336 4.51057,1.169 6.01409,-1.66999 1.83764,-3.33999 -7.35056,-2.83899 -12.86348,9.01798 -6.01409,12.69197 1.83764,1.00199 3.34116,2.83899 3.34116,4.17498 0,2.83899 -4.34351,3.33999 -5.84704,0.668 -0.83529,-1.169 -2.50587,-0.835 -5.1788,0.835 -2.17175,1.50299 -4.34351,2.67199 -4.84468,2.67199 -0.50118,0 -0.83529,-6.34598 -0.83529,-14.02796 0,-13.52696 0.16705,-14.02795 4.17645,-15.02995 4.51057,-1.169 5.67998,-4.34199 1.67058,-4.34199 -4.34351,0 -10.85878,8.34998 -10.85878,13.86096 0,3.17299 -1.33646,6.01198 -4.00939,8.01598 -5.51292,4.34198 -8.51997,13.52695 -6.0141,18.20294 2.17176,3.84099 5.51292,4.34199 8.35291,1.002 z m 265.62243,-4.50899 c 2.0047,-1.336 1.50353,-1.66999 -2.0047,-1.002 -5.51291,0.835 -5.67997,0.501 -1.1694,-5.67798 1.83764,-2.67199 5.01174,-4.84298 7.01644,-4.84298 2.67293,0 3.00705,-0.501 1.50352,-2.004 -1.33646,-1.33599 -1.50352,-2.50499 -0.16706,-4.17499 1.50353,-1.66999 1.16941,-2.17099 -1.50352,-2.17099 -2.0047,0 -4.00939,0.835 -4.51057,1.837 -0.66823,1.00199 -2.17175,1.33599 -3.50822,0.83499 -1.33646,-0.501 -2.33881,-0.167 -2.33881,0.668 0,1.002 0.83529,1.67 1.83764,1.67 1.00234,0 0,2.50499 -2.50588,5.67798 -5.67997,7.51498 -5.67997,11.02197 0.33412,11.02197 2.50587,0 5.67998,-0.835 7.01644,-1.837 z m -170.56635,-7.34798 c 1.50352,-1.50299 3.00705,-7.68197 3.67528,-14.52895 0.66823,-6.67998 1.67058,-13.52696 2.33881,-15.19696 0.83529,-2.00399 0.50118,-2.67199 -1.00235,-2.17099 -1.33646,0.334 -4.51057,1.16899 -7.01644,1.66999 -2.67293,0.668 -5.84703,3.17299 -7.68467,6.17898 l -3.17411,5.00999 -1.00235,-4.17499 c -2.17175,-8.68397 -14.19994,-6.67998 -18.87757,3.17299 -3.50822,7.34798 -1.67058,11.52297 5.67998,12.19097 4.0094,0.334 6.01409,-0.668 9.35526,-4.50899 l 4.17645,-5.00998 0.83529,4.34198 c 0.50117,2.67199 -0.16706,5.34399 -1.50352,6.67998 -5.17881,5.17699 -0.83529,11.35597 6.84938,9.68597 2.67293,-0.501 6.01409,-2.00399 7.35056,-3.33999 z m 153.86054,2.505 c 2.17176,-1.336 2.0047,-1.67 -0.33412,-1.67 -3.84233,0 -3.84233,-1.002 0.33412,-6.17898 5.51292,-7.01398 4.51057,-9.51897 -3.34116,-8.18298 -5.51292,0.835 -6.34821,0.668 -5.67998,-1.50299 1.16941,-2.67199 -1.00235,-3.17299 -7.1835,-1.503 -2.17176,0.668 -3.84234,1.67 -3.84234,2.505 0,0.83499 1.16941,1.00199 2.50587,0.50099 3.50823,-1.33599 3.17411,0.167 -1.67058,7.34798 -5.51292,8.18298 -2.00469,9.18497 4.51057,1.336 3.17411,-4.00799 6.34821,-6.01198 9.02114,-6.01198 h 4.17646 l -4.17646,5.51098 c -2.50587,3.17299 -4.34351,6.51298 -4.34351,7.51498 0,2.33799 6.51527,2.50499 10.02349,0.334 z m -27.73165,-10.01997 c 1.33646,-1.503 0.16706,-1.67 -4.34351,-0.835 -5.17881,1.002 -6.34821,0.668 -6.34821,-1.503 0,-1.83699 1.50352,-2.67199 4.84468,-2.67199 2.67293,0 6.51527,-1.336 8.51997,-3.00599 3.34116,-2.67199 3.34116,-3.17299 1.00235,-5.17698 -3.84234,-3.17299 -10.02349,-1.002 -17.20699,6.01198 -8.35291,8.34997 -8.85408,4.67598 -1.33647,-8.68398 5.51292,-10.01997 6.34821,-10.85496 11.69407,-10.85496 3.17411,0 5.84704,-0.668 5.84704,-1.67 0,-0.835 -2.67293,-1.66999 -6.01409,-1.66999 -4.51057,0 -7.1835,1.33599 -11.1929,5.34398 -3.00705,3.00599 -5.84703,5.17698 -6.68232,5.00999 -3.34117,-1.002 -12.86348,5.00998 -15.36935,9.68597 -3.17411,6.17898 -2.17176,8.34997 4.17645,8.34997 2.67293,0 5.1788,0.668 5.84704,1.67 0.66823,1.00199 2.50587,1.00199 5.34586,-0.167 3.67527,-1.336 4.84468,-1.169 6.01409,1.16899 1.16941,2.004 3.00704,2.505 7.51762,1.67 3.1741,-0.501 6.68232,-1.67 7.68467,-2.67199 z M 193.28626,166.9995 c 0.50117,-1.50299 -0.16706,-1.83699 -2.17176,-1.169 -1.50352,0.668 -4.67762,1.67 -6.84938,2.171 -2.17176,0.501 -4.0094,2.00399 -4.0094,3.33999 0,1.83699 1.00235,1.83699 6.18116,0 3.34116,-1.169 6.51526,-3.17299 6.84938,-4.34199 z m 126.46301,0 c 1.50352,2.33799 4.67762,2.00399 8.51996,-1.002 3.00705,-2.33799 3.00705,-2.50499 -0.83529,-1.33599 l -4.00939,1.00199 4.34351,-7.68197 c 2.83998,-5.17699 3.67527,-8.01598 2.33881,-8.85098 -1.00235,-0.50099 -2.17176,-0.16699 -2.50587,0.835 -1.67058,5.34399 -8.35291,12.85896 -11.86113,13.35996 -3.67528,0.501 -3.67528,0.501 -1.16941,-4.50898 1.50353,-2.672 2.67293,-6.17899 2.67293,-7.68198 0,-3.17299 -5.01174,-3.33999 -9.35525,0 -3.00705,2.33799 -3.00705,2.33799 0.66823,1.33599 4.17645,-1.00199 4.67763,0.668 1.83764,6.84698 -2.83999,6.17899 -1.00235,9.68597 4.17645,7.68198 2.67293,-1.002 4.51057,-1.002 5.17881,0 z m -38.59043,-2.67199 c 3.50822,-3.33999 3.34116,-4.34199 -0.66823,-9.51897 -3.50823,-4.34199 -1.67059,-8.51698 2.17175,-4.67599 2.50587,2.50499 4.51057,2.33799 4.51057,-0.668 0,-1.66999 -1.67058,-2.50499 -5.67998,-2.50499 -6.84938,0 -9.68937,5.00999 -5.34586,9.85297 1.50353,1.67 2.67293,3.67399 2.67293,4.67599 0,3.17299 -4.84468,3.84099 -6.51526,0.83499 -1.83764,-3.33999 -4.34351,-1.66999 -3.00705,2.171 1.33647,3.33999 8.51996,3.17299 11.86113,-0.167 z m 17.87522,-0.167 c 5.51292,-3.33999 6.68232,-6.67998 1.33646,-3.84099 -4.67762,2.67199 -5.51292,1.336 -3.1741,-5.67798 1.33646,-4.34199 3.00704,-6.01198 5.51292,-6.17898 3.1741,-0.167 3.1741,-0.334 0.66823,-1.002 -2.17176,-0.501 -2.83999,-1.83699 -2.33882,-4.00799 1.16941,-4.17499 -1.50352,-4.00799 -4.17645,0.167 -1.1694,1.83699 -3.34116,3.33999 -4.67763,3.33999 -2.00469,0 -2.00469,0.334 -0.33411,1.336 1.67058,1.16899 1.67058,2.50499 0.33411,6.01198 -2.17175,6.01198 -2.17175,12.69196 0.16706,12.69196 1.00235,0 4.0094,-1.336 6.68233,-2.83899 z m -63.14798,-58.78383 c 3.84234,-1.66999 11.1929,-4.00798 16.20464,-5.34398 12.19525,-3.17299 54.46095,-3.17299 66.82325,0 13.36466,3.33999 25.89402,9.68597 30.90576,15.53095 2.33881,2.839 4.51057,4.84299 4.67763,4.50899 0.16706,-0.334 2.50587,-5.17698 5.1788,-10.68797 7.35056,-15.530951 17.5411,-32.3979 23.72225,-39.24488 3.17411,-3.506989 5.67998,-6.67998 5.67998,-7.347978 0,-2.170993 -6.01409,-0.834997 -11.19289,2.337993 -3.00705,1.836995 -5.51292,2.504993 -5.51292,1.669995 0,-2.671992 -8.18585,-3.840988 -10.85878,-1.669995 -3.67528,3.005991 -3.00705,9.518972 1.16941,12.357963 l 3.50822,2.504993 -5.51292,5.176984 c -12.02819,11.188967 -21.38344,7.347978 -25.72695,-10.353969 -0.8353,-3.506989 -0.33412,-4.675986 2.17175,-5.510983 5.84704,-1.836995 6.34821,-11.021967 0.66823,-13.192961 -6.68232,-2.671992 -13.5317,6.011982 -9.02114,11.355966 1.50353,1.836995 1.00235,3.005991 -2.50587,5.844983 -11.52701,9.017973 -24.7246,8.015976 -30.90575,-2.170994 -4.17646,-6.846979 -4.0094,-7.514977 1.83764,-7.347978 7.01644,0.167 10.3576,-3.17299 9.68937,-10.01997 -0.50118,-5.677983 -2.0047,-7.347978 -8.35291,-9.351972 -2.17175,-0.667998 -3.00704,-2.671992 -3.00704,-7.681977 0,-7.013979 -4.51057,-17.868946 -9.02114,-21.542935 -3.84234,-3.172991 -11.02584,8.683974 -12.19525,20.540938 -0.66823,6.84698 -1.67058,9.351972 -3.50822,9.351972 -6.18115,0 -10.85878,9.184973 -7.35056,14.361957 2.17176,3.33999 8.0188,5.510984 11.86113,4.508987 3.84234,-1.001997 3.84234,-0.834998 1.16941,4.174987 -3.50822,6.67998 -10.35761,12.023964 -15.70347,12.023964 -5.1788,0 -18.71051,-6.345981 -19.87991,-9.351972 -0.33412,-1.168996 0,-3.506989 1.00235,-5.343984 2.00469,-3.840988 -1.83764,-10.353969 -6.34821,-10.353969 -6.84939,0 -9.52232,10.01997 -3.50822,13.693959 4.17645,2.671992 4.17645,5.176985 0,14.194958 -4.84469,11.021967 -12.52936,11.355966 -23.5552,1.001997 l -4.51057,-4.007988 4.17645,-4.174988 c 3.84234,-3.840988 4.0094,-4.508986 1.67058,-7.848976 -3.00704,-4.508987 -8.18584,-5.510984 -11.02583,-2.170994 -1.83764,2.170994 -2.67293,2.003994 -7.35056,-0.834997 -10.69172,-6.345981 -11.69407,-3.840989 -3.00705,7.013979 4.51057,5.510983 12.52936,18.703944 17.87522,29.057915 l 9.85643,18.87094 6.34821,-5.84498 c 3.50822,-3.17299 9.52232,-7.01398 13.36465,-8.68398 z"
         id="Shape"
         inkscape:connector-curvature="0"
         style="fill-opacity:0.98999999" />
      <path
         d="m 524.7296,257.01223 c -4.34352,-1.66999 -3.50823,-4.34199 2.00469,-6.34598 3.50822,-1.336 11.02584,0.835 11.02584,3.33999 0,2.33799 -9.1882,4.34199 -13.03053,3.00599 z"
         id="path9"
         inkscape:connector-curvature="0" />
      <path
         d="m 61.644451,224.78133 c 0,-2.338 0.835291,-4.34199 1.670581,-4.34199 1.002349,0 1.670582,1.503 1.670582,3.17299 0,1.837 -0.668233,3.84099 -1.670582,4.34199 -1.002349,0.668 -1.670581,-0.835 -1.670581,-3.17299 z"
         id="path11"
         inkscape:connector-curvature="0" />
      <path
         d="m 425.83118,193.21842 c 0,-3.33999 5.51292,-7.84897 9.68937,-7.84897 4.67763,0 5.01175,5.84498 0.50118,8.34997 -4.67763,2.33799 -10.19055,2.17099 -10.19055,-0.501 z"
         id="path13"
         inkscape:connector-curvature="0" />
      <path
         d="m 106.75015,197.39341 c 0,-1.837 1.1694,-4.17499 2.50587,-5.34398 2.0047,-1.67 2.50587,-1.503 2.50587,1.33599 0,1.837 -1.16941,4.17499 -2.50587,5.34399 -2.0047,1.66999 -2.50587,1.50299 -2.50587,-1.336 z"
         id="path15"
         inkscape:connector-curvature="0" />
      <path
         d="m 145.17352,182.86445 c 0,-7.01398 5.67997,-11.52296 7.1835,-5.67798 1.1694,4.34199 -2.0047,11.52297 -5.01175,11.52297 -1.33646,0 -2.17175,-2.004 -2.17175,-5.84499 z"
         id="path17"
         inkscape:connector-curvature="0" />
      <path
         d="m 232.87904,178.68947 c -0.50118,-0.835 1.67058,-4.34199 4.84468,-7.84898 l 5.84704,-6.34598 0.16706,6.01198 c 0,3.17299 -0.8353,6.67998 -2.0047,7.84898 -2.33882,2.33799 -7.51762,2.67199 -8.85408,0.334 z"
         id="path19"
         inkscape:connector-curvature="0" />
      <path
         d="m 217.50969,169.17049 c -3.00705,-1.16899 -2.67293,-11.35596 0.33411,-13.86095 6.68233,-5.51099 12.69642,5.17698 6.51527,11.85696 -3.00704,3.33999 -3.50822,3.50699 -6.84938,2.00399 z"
         id="path21"
         inkscape:connector-curvature="0" />
      <path
         d="m 237.05549,161.32152 c 0,-4.50899 4.00939,-9.35197 7.51762,-9.35197 2.67293,0 1.50352,6.17898 -2.17176,10.52096 -3.50822,4.00799 -5.34586,3.50699 -5.34586,-1.16899 z"
         id="path23"
         inkscape:connector-curvature="0" />
      <path
         d="m 337.29037,165.6635 c 0,-3.50698 5.67998,-8.68397 9.35525,-8.68397 3.67528,0 4.0094,0.334 2.17176,3.84099 -1.16941,2.00399 -2.83999,4.17499 -3.84234,4.84298 -2.50587,1.67 -7.68467,1.67 -7.68467,0 z"
         id="path25"
         inkscape:connector-curvature="0" />
      <path
         d="m 365.18908,161.82252 c 2.17175,-2.171 4.34351,-3.00599 5.67997,-2.338 1.50353,1.002 1.16941,1.837 -1.00234,3.67399 -1.83764,1.169 -4.34352,2.171 -5.67998,2.171 -2.0047,0 -1.83764,-0.835 1.00235,-3.50699 z"
         id="path27"
         inkscape:connector-curvature="0" />
    </g>
  </g>
</svg>
