<?xml version="1.0" encoding="UTF-8" standalone="no"?>
<svg
   xmlns:dc="http://purl.org/dc/elements/1.1/"
   xmlns:cc="http://creativecommons.org/ns#"
   xmlns:rdf="http://www.w3.org/1999/02/22-rdf-syntax-ns#"
   xmlns:svg="http://www.w3.org/2000/svg"
   xmlns="http://www.w3.org/2000/svg"
   xmlns:sodipodi="http://sodipodi.sourceforge.net/DTD/sodipodi-0.dtd"
   xmlns:inkscape="http://www.inkscape.org/namespaces/inkscape"
   width="1566.2931"
   height="1566.2931"
   viewBox="0 0 1566.2931 1566.2931"
   version="1.1"
   id="svg12"
   sodipodi:docname="gronnliste.svg"
   inkscape:version="0.92.2 5c3e80d, 2017-08-06">
  <metadata
     id="metadata16">
    <rdf:RDF>
      <cc:Work
         rdf:about="">
        <dc:format>image/svg+xml</dc:format>
        <dc:type
           rdf:resource="http://purl.org/dc/dcmitype/StillImage" />
        <dc:title>gronn-liste-logo</dc:title>
      </cc:Work>
    </rdf:RDF>
  </metadata>
  <sodipodi:namedview
     pagecolor="#ffffff"
     bordercolor="#666666"
     borderopacity="1"
     objecttolerance="10"
     gridtolerance="10"
     guidetolerance="10"
     inkscape:pageopacity="0"
     inkscape:pageshadow="2"
     inkscape:window-width="1050"
     inkscape:window-height="544"
     id="namedview14"
     showgrid="false"
     fit-margin-top="334.6427"
     fit-margin-left="0"
     fit-margin-right="0"
     fit-margin-bottom="334.6427"
     inkscape:zoom="0.20727041"
     inkscape:cx="792.8635"
     inkscape:cy="719.64149"
     inkscape:window-x="0"
     inkscape:window-y="30"
     inkscape:window-maximized="0"
     inkscape:current-layer="svg12" />
  <!-- Generator: Sketch 43.1 (39012) - http://www.bohemiancoding.com/sketch -->
  <title
     id="title2">gronn-liste-logo</title>
  <desc
     id="desc4">Created with Sketch.</desc>
  <defs
     id="defs6" />
  <g
     id="Page-1"
     style="fill:none;fill-rule:evenodd;stroke:none;stroke-width:1"
     transform="translate(-0.78573302,334.52847)">
    <g
       id="gronn-liste-logo"
       style="fill:#fdfefd;fill-rule:nonzero">
      <g
         id="layer7">
        <path
           d="m 592.56735,888.99796 c -14.84898,-15.94082 -85.16327,-94.77143 -116.3898,-130.36531 -18.56122,-20.96326 -38.65102,-43.67347 -44.76531,-50.22449 -6.11428,-6.76938 -32.7551,-36.46734 -58.95918,-65.94694 -27.29592,-30.78979 -48.91428,-53.5 -50.22449,-52.62653 -10.7,6.11429 -84.50816,57.64898 -107.43673,74.68164 -25.54898,19.21632 -85.38164,67.47551 -101.32245,82.10612 -30.789798,27.95102 -74.681635,72.06122 -91.277553,91.71428 -9.171429,10.91837 -18.1244901,21.4 -19.8714288,23.58368 -3.05714289,3.71224 -2.18367351,3.49388 8.5163268,-0.6551 6.55102,-2.62041 12.446938,-5.02245 13.10204,-5.45919 0.87347,-0.43673 11.136735,-3.49388 23.146939,-6.55102 C 102.98776,834.62449 215.66531,816.5 240.12245,818.24694 c 7.86122,0.6551 26.42245,4.14898 41.48979,7.64286 15.06735,3.49387 50.00613,11.57346 77.52041,17.68775 27.73266,6.33265 56.12041,12.66531 63.32653,14.41225 7.20613,1.74693 35.81225,8.07959 63.32653,14.41224 27.73266,6.11429 63.98164,14.41225 80.79592,18.34286 16.81429,3.93061 31.00817,6.76939 31.4449,6.33265 0.6551,-0.6551 -1.96531,-4.14898 -5.45918,-8.07959 z m 139.7551,-6.11429 c 166.83265,-23.80204 224.7,-32.53673 225.57347,-33.4102 0.43673,-0.43673 -63.32653,-43.4551 -141.72041,-95.6449 -78.39388,-51.97143 -144.99592,-96.3 -148.05306,-98.48367 -13.53878,-9.3898 -49.56939,-33.41021 -52.8449,-35.37551 -1.96531,-1.09184 -40.17959,-26.64082 -84.72653,-56.33878 l -81.23265,-54.37347 -43.89184,29.91633 c -24.23878,16.37755 -45.85714,31.00816 -48.04082,32.7551 -3.93061,2.83878 -2.18367,5.24082 24.02041,34.50204 15.28572,17.25102 38.86939,43.4551 51.97143,58.52245 13.32041,14.84898 44.76531,50.22449 69.87755,78.61225 74.2449,83.41632 108.31021,121.84898 122.28572,137.78979 7.20612,8.07959 13.53877,14.84898 13.97551,14.84898 0.6551,0 42.36326,-5.89592 92.80612,-13.32041 z m 296.10615,-60.92449 c 12.2285,-10.26326 27.0775,-22.49183 32.9734,-27.29591 5.6776,-4.80409 15.2858,-12.66531 20.9633,-17.46939 5.6776,-4.80408 24.2388,-20.0898 41.0531,-34.06531 17.0326,-13.75714 39.0877,-32.1 49.351,-40.61633 10.0449,-8.73469 27.7326,-23.3653 39.0877,-32.7551 62.6715,-51.31632 117.9184,-97.6102 117.9184,-98.92041 0,-0.87347 -23.802,-7.64285 -52.8449,-14.84898 -29.2612,-7.42449 -97.1735,-24.67551 -151.3286,-38.43265 C 1071.6653,503.79796 980.16939,480.65102 922.52041,466.02041 864.87143,451.3898 788.22449,431.9551 752.19388,423.00204 l -65.51021,-16.59592 -35.81224,15.72245 c -19.65306,8.73469 -39.74286,17.68776 -44.76531,19.87143 -86.69183,39.30612 -123.15918,58.30408 -119.0102,61.79796 1.09183,1.09184 52.40816,35.59388 138.4449,93.67959 34.93877,23.36531 75.5551,50.87959 90.62245,60.92449 33.84693,22.92857 100.66734,68.13061 158.31632,107.21837 39.96123,26.85918 92.36939,62.45306 113.33265,76.64694 9.82654,6.76939 5.24082,9.17143 40.61636,-20.30817 z M 62.371429,761.47143 c 75.336731,-71.62449 173.820411,-148.4898 246.536731,-192.6 14.63062,-8.95306 23.36531,-13.97551 32.31837,-18.56123 l 9.17143,-5.02245 -0.6551,-13.97551 c -0.21837,-7.64285 -1.09184,-20.30816 -1.52857,-28.16938 -0.65511,-7.86123 -2.62041,-39.30613 -4.36735,-69.87755 -8.51633,-150.01837 -16.15919,-271.43062 -17.25102,-272.52245 -0.43674,-0.43674 -2.18368,1.9653 -3.93061,5.45918 -1.74694,3.27551 -7.42449,13.97551 -12.66531,23.58367 -36.46735,67.47551 -48.91429,89.74898 -50.22449,91.71429 -1.74694,2.18367 -36.90408,66.60204 -53.06327,97.17347 -4.80408,8.95306 -12.44693,22.92857 -17.03265,31.00816 -4.80408,7.86123 -8.51633,15.06735 -8.51633,15.72245 0,0.87347 -2.40204,5.02245 -5.02244,9.60816 -2.83878,4.36735 -23.14694,51.31633 -44.98368,104.16123 -22.0551,52.8449 -41.70816,100.01224 -43.891834,104.81633 -3.27551,7.64285 -9.608163,22.92857 -29.479592,70.96938 -2.838775,6.55102 -11.355102,27.51429 -19.434694,46.51225 -7.861224,18.99796 -12.883673,33.62857 -11.355102,32.7551 1.528572,-0.87347 17.469388,-15.72245 35.375511,-32.7551 z M 1365.151,536.55306 c 3.0572,-4.58571 22.0551,-33.4102 42.1449,-63.98163 41.0531,-62.2347 91.9327,-139.53674 129.0551,-195.43878 13.5388,-20.30816 24.0204,-37.77755 23.147,-38.65102 -6.1143,-6.11428 -109.4021,-7.86122 -170.9817,-2.83877 -87.3469,6.98775 -204.6102,25.98571 -297.853,47.82245 -13.1021,3.27551 -30.7898,7.42449 -39.3062,9.38979 -39.5245,9.17143 -122.50404,31.00816 -164.8673,43.4551 -81.01429,24.02041 -151.54694,46.73062 -149.8,48.25919 1.09183,1.09183 58.74081,16.59592 79.92245,21.4 6.55102,1.52857 23.80204,5.89592 38.21428,9.60816 14.41225,3.93061 46.94898,12.44694 72.06122,18.77959 25.33062,6.55102 67.47551,17.25102 93.89795,24.02041 26.4225,6.76939 72.7163,18.56123 102.6327,26.42245 98.4836,25.11224 147.8347,37.77755 189.9796,48.69592 22.9285,5.89592 42.5816,10.91837 43.8918,10.91837 1.3102,0.21836 5.0224,-3.49388 7.8612,-7.86123 z M 391.23265,518.64694 c 10.0449,-6.98776 24.02041,-15.94082 31.22653,-19.87143 7.20613,-3.93061 16.59592,-9.3898 20.96327,-12.22857 4.36735,-2.62041 19.65306,-10.7 34.0653,-18.12449 l 26.42245,-13.10204 2.62041,-15.94082 c 1.31021,-8.73469 4.36735,-25.33061 6.55102,-36.68571 2.18368,-11.3551 7.42449,-39.96123 11.79184,-63.32653 4.14898,-23.36531 10.7,-59.17755 14.41224,-79.70408 3.71225,-20.30817 8.7347,-47.38572 10.91837,-60.05103 2.18367,-12.6653 9.60816,-52.84489 16.37755,-89.53061 6.76939,-36.685712 13.32041,-72.279589 14.63062,-79.267344 1.3102,-6.987755 1.52857,-13.320408 0.87346,-13.975511 -0.6551,-0.873469 -5.02245,0.655103 -9.60816,3.057143 -7.86122,4.367347 -18.34286,9.826531 -62.67143,33.410204 -12.0102,6.332654 -26.20408,13.975511 -31.66326,17.032653 -12.22857,6.769388 -104.16123,55.902045 -118.79184,63.544895 l -10.48163,5.45919 1.3102,16.37755 c 0.6551,9.17143 2.83878,42.58163 4.58572,74.46326 1.74693,31.88164 5.67755,100.23062 8.73469,151.76531 2.83878,51.75306 5.89592,106.3449 6.76939,121.84898 0.87347,15.28571 1.74694,27.73265 2.18367,27.73265 0.43674,0 8.95306,-5.67755 18.77959,-12.88367 z m 163.12041,-85.38163 c 13.10204,-5.89592 28.16939,-12.44694 33.41021,-14.41225 5.24081,-2.18367 10.48163,-4.58571 11.79183,-5.45918 1.31021,-1.09184 6.11429,-3.27551 10.91837,-5.02245 4.58571,-1.74694 16.81428,-6.76939 27.07755,-11.13674 10.26327,-4.36734 22.0551,-9.17143 26.42245,-10.91836 4.14898,-1.52858 12.0102,-4.80409 17.46939,-7.20613 12.44694,-5.67755 108.3102,-41.05306 116.17143,-43.01836 3.27551,-0.87347 5.89591,-2.18368 5.89591,-3.05715 0,-0.87347 12.44694,-19.43469 27.95102,-41.05306 33.62858,-48.04081 41.92653,-60.05102 56.12041,-80.35918 6.11429,-8.51633 18.77959,-26.85919 28.38776,-40.39796 9.60816,-13.53878 18.99796,-26.85918 20.7449,-29.47959 4.14897,-6.55102 24.23877,-35.37551 44.7653,-64.418369 28.16941,-40.179592 42.58161,-60.92449 42.58161,-61.79796 0,-0.873469 -8.953,-1.310204 -159.40814,-6.9877547 C 817.26735,6.7938776 742.14898,3.7367347 697.60204,1.9897959 653.27347,0.46122449 616.15102,-0.4122449 615.27755,0.46122449 613.74898,1.9897959 608.2898,28.630612 590.60204,119.90816 586.23469,142.83673 580.33878,173.1898 577.5,187.60204 c -3.05714,14.41225 -10.91837,54.81021 -17.46939,89.53061 -35.37551,182.99184 -32.53673,167.05102 -30.57143,167.05102 0.65511,0 12.01021,-4.80408 24.89388,-10.91836 z M 871.20408,313.16327 c 165.52242,-56.12041 354.19182,-95.42654 512.07142,-107.21837 40.1796,-3.05715 163.9939,-3.93061 176.4408,-1.31021 5.2408,1.09184 8.0796,1.09184 7.2062,-0.21836 -0.6551,-1.09184 -3.4939,-2.62041 -6.1143,-3.27551 -2.8388,-0.43674 -16.3776,-5.24082 -30.1347,-10.26327 -13.7572,-5.02245 -37.3408,-13.53877 -52.4082,-18.77959 -15.0673,-5.24082 -31.2265,-10.91837 -36.0306,-12.66531 -4.8041,-1.74694 -26.8592,-9.60816 -49.1327,-17.46939 -22.2734,-7.64285 -56.1204,-19.65306 -75.3367,-26.42244 -19.2163,-6.76939 -44.3286,-15.50409 -55.6837,-19.653065 -11.3551,-3.930612 -31.0081,-10.918367 -43.6734,-15.285714 -12.6653,-4.585714 -32.3184,-11.355102 -43.6735,-15.285714 -11.3551,-3.930613 -31.4449,-11.136735 -44.7653,-15.940817 -13.102,-4.804081 -34.9388,-12.665306 -48.2592,-17.469388 l -24.4571,-8.734693 -5.6776,8.079591 c -3.2755,4.367347 -12.2286,16.814286 -19.8714,27.514286 -20.5266,29.042857 -28.1694,39.52449 -43.89186,60.051024 -7.86122,10.26326 -16.81428,22.49183 -19.87142,27.29591 -3.05715,4.80409 -14.41225,20.52654 -25.11225,34.93878 -10.48163,14.41224 -29.47959,40.39796 -41.92653,57.86735 -12.44694,17.46939 -27.95102,38.65102 -34.50204,46.94898 -17.90612,23.58367 -25.98571,36.03061 -23.58367,36.03061 1.3102,0 13.97551,-3.93061 28.38775,-8.73469 z"
           id="Shape"
           inkscape:connector-curvature="0" />
      </g>
    </g>
  </g>
</svg>
