<?xml version="1.0" encoding="UTF-8" standalone="no"?>
<svg
   xmlns:dc="http://purl.org/dc/elements/1.1/"
   xmlns:cc="http://creativecommons.org/ns#"
   xmlns:rdf="http://www.w3.org/1999/02/22-rdf-syntax-ns#"
   xmlns:svg="http://www.w3.org/2000/svg"
   xmlns="http://www.w3.org/2000/svg"
   xmlns:sodipodi="http://sodipodi.sourceforge.net/DTD/sodipodi-0.dtd"
   xmlns:inkscape="http://www.inkscape.org/namespaces/inkscape"
   width="690.85193"
   height="690.85193"
   viewBox="0 0 690.85193 690.85193"
   version="1.1"
   id="svg35"
   sodipodi:docname="liberalliste.svg"
   inkscape:version="0.92.2 5c3e80d, 2017-08-06">
  <metadata
     id="metadata39">
    <rdf:RDF>
      <cc:Work
         rdf:about="">
        <dc:format>image/svg+xml</dc:format>
        <dc:type
           rdf:resource="http://purl.org/dc/dcmitype/StillImage" />
        <dc:title>12795529_1216647641683554_6517725384028342229_n</dc:title>
      </cc:Work>
    </rdf:RDF>
  </metadata>
  <sodipodi:namedview
     pagecolor="#ffffff"
     bordercolor="#666666"
     borderopacity="1"
     objecttolerance="10"
     gridtolerance="10"
     guidetolerance="10"
     inkscape:pageopacity="0"
     inkscape:pageshadow="2"
     inkscape:window-width="950"
     inkscape:window-height="480"
     id="namedview37"
     showgrid="false"
     fit-margin-top="38.47574"
     fit-margin-left="0"
     fit-margin-right="0"
     fit-margin-bottom="38.47574"
     inkscape:zoom="0.38436482"
     inkscape:cx="345.48059"
     inkscape:cy="345.37776"
     inkscape:window-x="642"
     inkscape:window-y="347"
     inkscape:window-maximized="0"
     inkscape:current-layer="svg35" />
  <!-- Generator: Sketch 43.1 (39012) - http://www.bohemiancoding.com/sketch -->
  <title
     id="title2">12795529_1216647641683554_6517725384028342229_n</title>
  <desc
     id="desc4">Created with Sketch.</desc>
  <defs
     id="defs6" />
  <g
     id="Page-1"
     style="fill:none;fill-rule:evenodd;stroke:none;stroke-width:1"
     transform="translate(-0.01940906,38.47412)">
    <g
       id="12795529_1216647641683554_6517725384028342229_n"
       style="fill-rule:nonzero">
      <path
         d="m 376.09011,613.16636 c 52.52181,-4.83906 97.35539,-17.35918 140.72043,-39.4038 40.34159,-20.43159 76.53672,-48.9283 105.21639,-82.72492 33.43082,-39.48061 55.54526,-86.02778 64.52926,-135.57057 7.34268,-40.63276 5.26945,-82.87855 -5.87415,-122.97364 -6.21969,-22.19824 -13.13045,-38.78931 -25.56983,-61.75566 C 626.60531,118.12257 575.72481,69.962374 517.67439,40.313514 491.93179,27.255726 458.41459,15.119664 431.20345,9.0516331 411.9397,4.8270545 398.98202,2.9067916 373.41219,0.52566551 364.16904,-0.31925019 316.13923,-0.08881863 312.16554,0.83290759 311.21531,1.0633391 307.32801,1.4473917 303.52709,1.7546338 294.37033,2.4459285 272.34227,6.1328333 259.55735,9.0516331 241.50298,13.199401 226.38568,17.808032 205.0487,25.796326 199.26094,27.947021 176.10988,38.623683 168.93996,42.387398 123.24253,66.582711 83.1601,100.99382 54.566814,140.39762 26.232682,179.57098 8.0919259,224.50514 1.9586228,270.36102 c -1.81407552,13.36503 -2.59153647,50.46451 -1.29576821,61.67884 2.67792111,23.19678 3.88730481,29.41843 9.32953141,49.54279 3.109844,11.75201 9.502301,29.49524 14.080682,39.17336 1.468537,3.14923 2.937074,6.37527 3.196228,7.22019 0.863846,2.30432 13.907913,25.5779 17.708833,31.49231 10.538915,16.28383 24.878751,34.25749 38.52751,48.23701 37.922821,39.01974 86.643701,69.20627 141.065971,87.25675 29.45713,9.83174 61.67857,16.13021 94.93662,18.58814 8.89761,0.61449 48.11619,0.38406 56.58188,-0.38405 z"
         id="Shape"
         inkscape:connector-curvature="0"
         style="fill:#ffffff" />
      <path
         d="m 242.97152,429.28198 c -0.17277,-0.15362 -0.34554,-13.05779 -0.34554,-28.65032 0,-24.57937 0.17277,-28.26628 1.29577,-28.26628 1.123,0 1.29577,3.53329 1.29577,27.26774 v 27.26773 h 15.54922 c 13.21683,0 15.54921,0.15362 15.54921,1.15216 0,0.99854 -2.15961,1.15216 -13.56237,1.22897 -7.51546,0 -14.94453,0.0768 -16.49945,0.15362 -1.64131,0.0768 -3.10984,0 -3.28261,-0.15362 z"
         id="path9"
         inkscape:connector-curvature="0"
         style="fill:#005744" />
      <path
         d="m 291.51964,429.4356 c -0.25916,-0.23043 -0.51831,-13.21141 -0.51831,-28.80394 0,-24.57937 0.17277,-28.26628 1.29577,-28.26628 1.123,0 1.29577,3.68691 1.29577,28.34309 0,15.66934 -0.34554,28.57351 -0.77747,28.80394 -0.34553,0.23043 -0.95023,0.23043 -1.29576,-0.0768 z"
         id="path11"
         inkscape:connector-curvature="0"
         style="fill:#005744" />
      <path
         d="m 317.34862,428.89793 c -2.76431,-1.07535 -8.20654,-5.53036 -8.20654,-6.68252 0,-1.4594 1.98685,-0.61448 5.78777,2.38113 3.8873,2.99561 4.06007,3.07242 10.71168,3.07242 6.21969,0 6.91077,-0.15362 10.45253,-2.53475 4.66477,-3.14923 5.87415,-5.22311 5.87415,-10.2158 0,-3.45647 -0.34553,-4.22458 -3.10984,-6.68251 -1.90046,-1.68984 -5.70138,-3.68691 -9.76145,-5.14631 -14.33984,-5.06949 -18.91822,-7.98829 -20.81868,-13.05779 -1.03662,-2.68836 -0.95023,-3.6869 0.25915,-7.14337 2.67792,-7.45062 8.81123,-11.29115 18.22714,-11.29115 7.68823,0 13.9943,2.84199 16.84499,7.52743 1.72769,2.9188 -1.20938,2.07388 -4.83754,-1.4594 -3.02345,-2.84199 -3.80092,-3.14923 -8.63845,-3.53328 -7.2563,-0.61449 -10.97084,0.15362 -14.59899,2.99561 -3.62815,2.84199 -4.66476,4.99268 -4.83753,9.44769 -0.0864,5.68398 3.97369,9.06364 15.72198,13.05779 15.03092,5.1463 20.21399,10.36942 18.05438,18.20409 -1.20939,4.53182 -5.615,9.37089 -10.107,11.06072 -3.71453,1.38259 -13.56237,1.38259 -17.01775,0 z"
         id="path13"
         inkscape:connector-curvature="0"
         style="fill:#005744" />
      <path
         d="M 376.52203,401.93743 V 374.6697 h -9.5023 c -7.86099,0 -9.5023,-0.23043 -9.5023,-1.15216 0,-0.99853 2.85069,-1.15216 20.73229,-1.15216 17.88161,0 20.7323,0.15363 20.7323,1.15216 0,0.92173 -1.64131,1.15216 -9.93423,1.15216 h -9.93422 v 27.26773 c 0,23.73445 -0.17277,27.26774 -1.29577,27.26774 -1.123,0 -1.29577,-3.53329 -1.29577,-27.26774 z"
         id="path15"
         inkscape:connector-curvature="0"
         style="fill:#005744" />
      <path
         d="m 412.80354,400.78528 v -28.4199 l 17.96799,0.15363 c 23.15106,0.30724 23.92852,1.68983 1.03662,1.99707 l -16.41307,0.15362 v 10.75347 10.67666 l 13.38961,0.23044 c 17.8816,0.30724 18.14075,1.61302 0.43192,2.15069 l -13.38961,0.38405 -0.25915,14.05633 -0.17277,13.97951 h 16.84499 c 14.42622,0 16.84499,0.15362 16.84499,1.15216 0,0.99854 -2.59154,1.15216 -18.14076,1.15216 h -18.14076 z"
         id="path17"
         inkscape:connector-curvature="0"
         style="fill:#005744" />
      <path
         d="m 66.142344,331.88624 c -0.777461,-0.61448 -0.777461,-96.70444 -0.08638,-99.08557 0.345539,-1.22897 1.209384,-1.76664 2.591537,-1.76664 h 2.073229 v 48.39063 48.39062 l 27.470287,0.15362 27.383903,0.23044 v 1.92026 1.92026 l -29.457132,0.23043 c -16.153911,0.0768 -29.629901,-0.0768 -29.975439,-0.38405 z"
         id="path19"
         inkscape:connector-curvature="0"
         style="fill:#005744" />
      <path
         d="m 151.49028,331.50219 c -0.25915,-0.53768 -0.34554,-23.27359 -0.25915,-50.54132 l 0.25915,-49.54279 2.41877,-0.23043 2.33238,-0.23043 -0.17277,50.54132 -0.25915,50.54132 -1.98685,0.23043 c -1.03661,0.15363 -2.07323,-0.23043 -2.33238,-0.7681 z"
         id="path21"
         inkscape:connector-curvature="0"
         style="fill:#005744" />
      <path
         d="m 185.43941,331.96305 c -1.46854,-0.38405 -1.55492,-3.45647 -1.55492,-50.61813 0,-45.01096 0.17276,-50.15727 1.38215,-50.61813 2.246,-0.76811 20.04121,-0.53768 24.36044,0.38405 9.5023,1.92026 12.00745,2.53475 15.72199,4.22458 5.0103,2.15069 10.36615,6.83614 12.52576,10.67666 2.33238,4.3782 2.67792,11.59839 0.77746,16.66788 -1.81407,4.99269 -8.72484,11.36796 -14.5126,13.28822 -2.15962,0.76811 -3.97369,1.61302 -3.97369,1.99708 0,0.38405 1.6413,0.99853 3.71453,1.4594 9.5023,2.30431 18.14076,7.52743 22.54637,13.74908 6.21969,8.67959 4.14646,20.27798 -4.92392,27.80541 -3.97369,3.22604 -13.73514,7.37381 -21.76891,9.14045 -6.82438,1.53621 -30.7529,2.84199 -34.29466,1.84345 z m 34.29466,-6.06803 c 12.35299,-2.61156 22.20083,-8.98683 24.44683,-15.66934 2.41877,-7.06657 0.69108,-13.51866 -5.18307,-18.66496 -7.77461,-7.06657 -19.43652,-10.13899 -40.16882,-10.83028 l -9.67507,-0.38406 -0.25915,22.96635 c -0.17277,12.67373 -0.0864,23.3504 0.0864,23.81126 0.43193,1.30578 23.32383,0.38405 30.7529,-1.22897 z m -7.60184,-50.77175 c 17.3633,-3.14923 25.48345,-11.75201 22.71914,-23.88807 -2.41877,-10.29261 -14.85814,-15.97659 -36.02236,-16.51426 l -9.76145,-0.23044 v 20.89247 20.96927 h 8.20653 c 4.57838,0 11.22999,-0.53768 14.85814,-1.22897 z"
         id="path23"
         inkscape:connector-curvature="0"
         style="fill:#005744" />
      <path
         d="m 275.19296,331.88624 c -0.34554,-0.23043 -0.6047,-23.04315 -0.6047,-50.69494 v -50.15727 h 32.48059 32.39421 l -0.25915,1.76664 -0.25916,1.68983 -29.54351,0.23044 -29.6299,0.15362 v 19.20263 19.20263 h 24.18767 24.18768 v 2.30431 2.30432 h -24.18768 -24.18767 v 24.96342 24.96341 l 29.6299,0.15362 29.54351,0.23044 v 1.92026 1.92026 l -31.61674,0.23043 c -17.3633,0.0768 -31.78952,-0.0768 -32.13505,-0.38405 z"
         id="path25"
         inkscape:connector-curvature="0"
         style="fill:#005744" />
      <path
         d="m 365.03289,331.96305 c -0.34554,-0.30724 -0.60469,-23.11996 -0.60469,-50.69494 0,-44.93415 0.17277,-50.08046 1.38215,-50.54132 0.77746,-0.23043 5.35584,-0.46086 10.27976,-0.46086 19.43652,0 36.02236,4.91587 45.69743,13.59546 10.10699,9.06364 12.95768,19.43306 8.29291,30.18653 -2.93707,6.75933 -10.97083,13.97952 -19.60929,17.66642 -3.45538,1.4594 -6.30607,2.84199 -6.30607,3.07242 0,0.38405 0.34554,0.76811 18.83183,22.50548 9.15676,10.75348 11.40276,13.90271 10.45253,14.44038 -0.69107,0.38405 -1.6413,0.6913 -2.15961,0.6913 -0.86385,0 -12.43938,-12.98098 -26.2609,-29.41843 l -5.615,-6.75933 -3.45538,0.38405 c -1.90046,0.23043 -8.63846,0.61449 -14.85815,0.92173 l -11.48914,0.53767 -0.17277,16.97513 c -0.25915,16.43745 -0.34554,16.97512 -1.98684,17.20555 -1.03662,0.15363 -2.07323,0 -2.41877,-0.30724 z m 31.53036,-40.1719 c 13.47599,-3.07242 23.41021,-9.21726 28.16136,-17.35918 1.90046,-3.22604 2.246,-4.83906 2.246,-10.36942 0.0864,-5.83759 -0.25915,-6.98975 -2.50515,-10.59985 -7.16992,-11.6752 -24.01491,-18.58814 -45.09274,-18.58814 h -9.76145 v 29.18799 29.188 h 10.19338 c 7.34268,0 12.18022,-0.46086 16.7586,-1.4594 z"
         id="path27"
         inkscape:connector-curvature="0"
         style="fill:#005744" />
      <path
         d="m 456.94605,331.73262 c -1.55492,-0.92173 -1.72769,-0.30724 12.00745,-32.72128 10.02061,-23.42721 24.36045,-57.22384 27.55667,-65.13532 0.86385,-1.99707 1.81408,-3.76372 2.246,-3.84053 0.51831,-0.15362 5.96054,11.82882 12.43938,27.49817 4.57838,11.06072 14.94453,35.56327 15.6356,36.86905 0.43192,0.84491 4.06008,9.44769 8.20653,19.12582 7.51546,17.82004 7.77461,19.27944 3.88731,18.66495 -0.69108,-0.0768 -3.45538,-5.37673 -6.91077,-13.59546 l -5.61499,-13.44184 -27.55667,-0.23043 c -25.56983,-0.15362 -27.47029,-0.0768 -27.90221,1.15216 -1.29577,4.3782 -11.22999,25.88514 -11.92107,26.11557 -0.43192,0.0768 -1.38215,-0.0768 -2.07323,-0.46086 z m 66.77526,-31.64593 c 0.25915,-0.30725 -7.51546,-19.43306 -14.08068,-34.48793 -1.38216,-3.14923 -4.23285,-9.75493 -6.21969,-14.59399 -1.98685,-4.83907 -3.88731,-9.14046 -4.23284,-9.4477 -0.34554,-0.30724 -1.55493,1.76664 -2.85069,4.60863 -2.07323,4.99269 -9.41592,22.27505 -18.57268,43.782 -2.33239,5.60717 -3.97369,10.2158 -3.54177,10.36942 1.20938,0.38405 49.15281,0.15362 49.49835,-0.23043 z"
         id="path29"
         inkscape:connector-curvature="0"
         style="fill:#005744" />
      <path
         d="m 568.29574,331.65581 c -1.123,-0.61448 -1.29577,-7.22019 -1.55493,-50.69494 l -0.17277,-50.00365 2.33239,0.23043 2.41877,0.23043 0.25915,48.23701 0.17277,48.16019 h 27.12475 c 26.34729,0 27.21113,0.0768 27.72944,1.53621 0.25915,0.84492 0.25915,1.84346 0,2.30432 -0.69108,0.99854 -56.4955,0.99854 -58.30957,0 z"
         id="path31"
         inkscape:connector-curvature="0"
         style="fill:#005744" />
    </g>
  </g>
</svg>
