<?xml version="1.0" encoding="UTF-8" standalone="no"?>
<svg
   xmlns:dc="http://purl.org/dc/elements/1.1/"
   xmlns:cc="http://creativecommons.org/ns#"
   xmlns:rdf="http://www.w3.org/1999/02/22-rdf-syntax-ns#"
   xmlns:svg="http://www.w3.org/2000/svg"
   xmlns="http://www.w3.org/2000/svg"
   xmlns:sodipodi="http://sodipodi.sourceforge.net/DTD/sodipodi-0.dtd"
   xmlns:inkscape="http://www.inkscape.org/namespaces/inkscape"
   width="928"
   height="928"
   viewBox="0 0 928 928"
   version="1.1"
   id="svg33"
   sodipodi:docname="Realistlista_logo_grnn.svg"
   inkscape:version="0.92.2 5c3e80d, 2017-08-06">
  <metadata
     id="metadata37">
    <rdf:RDF>
      <cc:Work
         rdf:about="">
        <dc:format>image/svg+xml</dc:format>
        <dc:type
           rdf:resource="http://purl.org/dc/dcmitype/StillImage" />
        <dc:title>Realistlista_logo_grnn</dc:title>
      </cc:Work>
    </rdf:RDF>
  </metadata>
  <sodipodi:namedview
     pagecolor="#ffffff"
     bordercolor="#666666"
     borderopacity="1"
     objecttolerance="10"
     gridtolerance="10"
     guidetolerance="10"
     inkscape:pageopacity="0"
     inkscape:pageshadow="2"
     inkscape:window-width="950"
     inkscape:window-height="480"
     id="namedview35"
     showgrid="false"
     fit-margin-top="0"
     fit-margin-left="139"
     fit-margin-right="139"
     fit-margin-bottom="0"
     inkscape:zoom="0.25431034"
     inkscape:cx="464"
     inkscape:cy="464"
     inkscape:window-x="0"
     inkscape:window-y="30"
     inkscape:window-maximized="0"
     inkscape:current-layer="svg33" />
  <!-- Generator: Sketch 43.1 (39012) - http://www.bohemiancoding.com/sketch -->
  <title
     id="title2">Realistlista_logo_grnn</title>
  <desc
     id="desc4">Created with Sketch.</desc>
  <defs
     id="defs6" />
  <g
     id="Page-1"
     style="fill:none;fill-rule:evenodd;stroke:none;stroke-width:1"
     transform="translate(139)">
    <g
       id="Realistlista_logo_grnn"
       style="fill:#ffffff;fill-rule:nonzero">
      <path
         d="M 0,464 V 0 H 325 650 V 464 928 H 325 0 Z m 618.54839,0 V 47.186441 H 325 31.451613 V 464 880.81356 H 325 618.54839 Z"
         id="Shape"
         inkscape:connector-curvature="0" />
      <path
         d="M 56.350806,464.65537 V 73.40113 H 325 593.64919 V 464.65537 855.90961 H 325 56.350806 Z M 177.43952,792.86328 c 0.26209,-0.26215 0.26209,-2.09718 -0.13105,-3.93221 -0.5242,-3.14576 -1.04839,-3.40791 -6.81452,-2.75254 -6.81452,0.65537 -11.9254,-1.31073 -11.9254,-4.32542 0,-1.57288 2.09677,-1.9661 10.48387,-1.9661 h 10.48387 v -6.02938 c 0,-5.11187 -0.65524,-6.68475 -4.45565,-10.48588 -3.8004,-3.80113 -5.37298,-4.4565 -10.48387,-4.4565 -4.97984,0 -6.81451,0.78644 -10.74596,4.32543 -4.0625,3.67005 -4.84879,5.37401 -5.50404,11.14124 -1.44153,14.94237 6.81452,22.02034 23.06452,19.79209 3.01411,-0.39322 5.76613,-1.04859 6.02823,-1.31073 z m 105.23185,-0.65537 c 3.66936,-2.35932 5.11089,-7.60226 3.27621,-11.66554 -0.78629,-1.83502 -4.45565,-4.71864 -8.125,-6.55367 -8.64919,-4.4565 -8.91129,-7.60226 -0.2621,-7.07797 5.63508,0.39322 6.15928,0.13108 6.55242,-2.62146 0.65524,-3.93221 -1.57258,-5.37402 -8.51814,-5.37402 -7.33871,0 -11.66331,2.09718 -13.62903,6.68475 -2.35888,5.8983 0.26209,10.61695 8.125,14.28701 9.04233,4.32542 8.51814,6.81581 -1.04839,6.4226 l -7.60081,-0.39323 v 3.93221 c 0,3.27683 0.5242,3.9322 4.5867,4.58757 5.89717,1.04859 12.97379,0.13107 16.64314,-2.22825 z m 94.22379,2.09717 c 6.55242,0 10.74597,-9.04406 7.07661,-15.59773 -0.65524,-1.31074 -4.19354,-3.67006 -7.8629,-5.24294 -8.25605,-3.53899 -7.99395,-6.02938 0.52419,-5.89831 5.37299,0 6.15928,-0.26215 6.94557,-3.14576 1.04839,-4.4565 -1.44153,-5.76723 -10.61492,-5.11186 -8.64919,0.52429 -12.58065,3.67005 -12.58065,9.96158 0,4.84971 2.48992,7.8644 9.17339,11.14124 8.91129,4.32542 8.51815,6.55367 -1.04839,5.76723 -7.8629,-0.52429 -7.8629,-0.52429 -8.38709,3.14576 -0.5242,3.01469 0,3.80113 2.09677,4.32543 1.57258,0.26214 3.93145,0.78644 5.37299,1.04858 1.44153,0.39323 3.40725,0.39323 4.32459,0.13108 1.04839,-0.26215 3.27621,-0.5243 4.97984,-0.5243 z m 159.87903,-4.06327 c 8.51815,-7.99548 6.55242,-24.24859 -3.5383,-29.49153 -15.20162,-7.73333 -30.40323,8.913 -22.67137,25.03503 2.22782,4.84972 6.29032,7.99548 11.13911,8.78192 4.97984,0.78644 11.6633,-1.04859 15.07056,-4.32542 z m -417.78226,-4.71865 c 0.5242,-11.14124 3.14517,-11.14124 10.09073,0.26215 5.11089,8.3887 5.37298,8.51977 10.87702,8.51977 h 5.63508 l -2.22783,-4.19435 c -1.31048,-2.35932 -3.66935,-6.42259 -5.37298,-9.04406 l -3.14516,-4.71865 4.19355,-4.19435 c 3.66935,-3.80113 4.0625,-4.71864 3.40726,-10.09265 -1.17944,-10.48588 -7.60081,-14.15594 -23.85081,-13.3695 l -9.17339,0.39323 -0.39314,22.6757 -0.2621,22.67571 4.84879,-0.39322 4.97984,-0.39322 z m 93.04436,7.99548 c 2.75202,-0.78644 2.88306,-1.57288 2.88306,-11.79661 0,-18.08813 -3.40725,-22.80678 -16.38104,-22.80678 -7.99396,0 -9.82863,0.91752 -9.82863,5.50509 0,3.67005 0.13105,3.80113 4.58669,2.88361 6.15927,-1.04858 10.61492,0.26215 11.53226,3.40791 0.65524,2.35933 0,2.62147 -6.42137,2.62147 -8.6492,0 -13.62903,3.80113 -13.62903,10.48588 0,2.4904 1.17943,5.24294 3.2762,7.20904 2.75202,2.88361 4.3246,3.27683 12.05646,3.27683 4.84879,0 10.22177,-0.39322 11.9254,-0.78644 z m 25.42339,-3.01468 c 0.39314,-2.88362 0,-4.06328 -1.83468,-4.4565 -2.09677,-0.65537 -2.35887,-2.4904 -2.35887,-21.88927 v -21.2339 l -2.88307,0.78644 c -1.70363,0.39323 -4.0625,0.78644 -5.24193,0.78644 -2.09678,0 -2.35887,1.96611 -2.35887,21.62712 0,21.36498 0,21.7582 3.27621,24.90396 1.83467,1.9661 4.71774,3.27683 6.94556,3.27683 3.27621,0 3.93145,-0.65536 4.45565,-3.80112 z m 15.46371,-13.23842 v -17.03955 h -4.5867 -4.58669 v 17.03955 17.03954 h 4.58669 4.5867 z m 62.24798,15.59774 c 0.52419,-0.65537 0.52419,-2.62147 0.13105,-4.32543 -0.65524,-2.49039 -1.44153,-2.88361 -4.84879,-2.35932 -5.63508,0.78644 -7.73186,-2.22825 -7.73186,-11.14124 v -6.9469 h 5.89718 c 5.63508,0 5.89718,-0.13107 5.89718,-3.80112 0,-3.67006 -0.39315,-3.93221 -5.50403,-4.32543 -5.50404,-0.39322 -5.63508,-0.52429 -6.02823,-5.24294 -0.39314,-5.11186 -1.17944,-5.50508 -6.42137,-4.19435 -2.88307,0.78644 -3.01411,1.31074 -3.01411,19.13673 0,17.56384 0.13104,18.35028 3.27621,21.36497 2.62096,2.75254 4.45564,3.27683 10.35282,3.27683 3.93145,0 7.60081,-0.65536 7.99395,-1.4418 z m 21.36089,-2.22825 c 0.26209,-2.09718 -0.5242,-3.80113 -2.22783,-5.11187 -2.62096,-1.70395 -2.75201,-3.01469 -2.75201,-22.28248 v -20.31639 l -2.88307,0.78644 c -1.70362,0.39323 -3.8004,0.78644 -4.58669,0.78644 -1.31048,0 -1.70363,5.37402 -1.70363,22.15142 v 22.28248 l 3.53831,2.75255 c 4.58669,3.67005 10.09072,3.01468 10.61492,-1.04859 z m 15.9879,-13.36949 v -17.03955 h -5.24193 -5.24194 v 16.12203 c 0,8.913 0.39314,16.64633 0.91734,17.03955 0.39314,0.52429 2.75201,0.91751 5.24193,0.91751 h 4.3246 z m 61.98589,15.99096 c 0.39314,-0.5243 0.39314,-2.4904 0,-4.32543 -0.5242,-2.88361 -1.17944,-3.27683 -4.45565,-2.75254 -5.89717,0.91751 -7.73185,-1.57288 -7.73185,-10.3548 v -7.73334 h 5.89718 c 5.63508,0 5.89717,-0.13107 5.89717,-3.9322 0,-3.80113 -0.26209,-3.9322 -5.89717,-3.9322 h -5.89718 v -5.24294 c 0,-5.50508 -1.04839,-6.16045 -7.46976,-4.4565 -2.88306,0.78644 -3.01411,1.44181 -3.01411,14.8113 0.13105,24.11752 2.62096,28.96723 15.20161,28.96723 3.8004,0 7.20766,-0.39322 7.46976,-1.04858 z m 30.92742,0.13107 c 3.01411,-0.78644 3.01411,-0.91751 2.35887,-13.36949 -0.2621,-6.94689 -1.04839,-13.63164 -1.57258,-14.94237 -1.44153,-3.40791 -7.60081,-6.16046 -14.02218,-6.16046 -9.30444,0 -11.13911,0.91752 -10.48387,5.24294 0.52419,3.67006 0.78629,3.80113 6.29032,3.01469 5.89718,-0.78644 9.69758,0.91751 9.69758,4.32542 0,1.31074 -1.83468,1.83503 -6.55242,1.83503 -8.125,0 -13.10484,4.06328 -13.10484,10.48588 0,2.4904 1.17944,5.24294 3.27621,7.20904 2.75202,2.88361 4.3246,3.27683 12.05646,3.27683 4.84879,0 10.35282,-0.39322 12.05645,-0.91751 z m 18.21572,-0.65537 c 4.19355,-4.19435 -0.52419,-11.40339 -6.29032,-9.56836 -3.27621,1.04859 -4.84879,6.55367 -2.62097,9.17514 1.96573,2.35932 6.68347,2.62147 8.91129,0.39322 z m 17.29839,-11.53446 c 0,-14.41808 0.91734,-16.12203 7.33871,-13.36949 3.01411,1.44181 3.14516,2.09717 3.14516,14.02486 v 12.45197 h 5.37298 5.37299 l -0.52419,-13.76271 c -0.39315,-12.71412 -0.7863,-14.02486 -3.80041,-17.17062 -3.93145,-3.80113 -11.13911,-5.24294 -20.0504,-3.9322 l -6.02823,0.91751 v 17.03955 16.90847 h 4.5867 4.58669 z m -227.5,-29.09831 c 1.83468,-3.01468 -0.39315,-6.81581 -4.3246,-7.34011 -5.50403,-0.78644 -8.78024,4.98079 -5.11088,8.65085 2.22782,2.22825 7.6008,1.44181 9.43548,-1.31074 z m 99.07258,0.26215 c 2.22782,-4.32542 -0.52419,-8.12655 -5.63508,-7.60226 -3.27621,0.26215 -4.3246,1.04859 -4.58669,3.40791 -0.78629,4.84972 0.65524,6.81582 4.84879,6.81582 2.62096,0 4.45564,-0.91751 5.37298,-2.62147 z M 536.25,656.0226 c 1.96573,-10.74802 3.53831,-20.31638 3.53831,-21.10283 0.13104,-0.91751 -3.66936,-2.22825 -8.6492,-3.14576 -11.79435,-1.9661 -20.57459,-5.8983 -25.29234,-11.27231 -8.25604,-9.43729 -7.8629,-0.39323 -7.8629,-195.16837 0,-97.38757 -0.2621,-177.47344 -0.65524,-177.86666 -0.39315,-0.26215 -11.66331,1.31073 -25.16129,3.67005 -13.62903,2.35932 -24.76815,4.32543 -25.03024,4.4565 -0.13105,0 -0.13105,81.78983 0.13104,181.92994 0.2621,165.15255 0.5242,182.45424 2.48992,188.87684 5.63508,18.08814 16.25,31.85085 29.74799,38.79774 8.78024,4.32542 23.98185,8.3887 37.47984,9.69943 17.03629,1.83503 15.20161,3.53899 19.26411,-18.87457 z M 158.56855,597.17062 v -74.0565 l 38.39718,-0.39322 38.26612,-0.39322 4.3246,4.58757 c 7.07661,7.34012 32.7621,42.20565 47.17742,63.7017 12.1875,18.35028 31.05847,49.15254 43.11492,70.64859 l 5.11089,9.17514 28.4375,0.39322 c 21.22984,0.26214 28.4375,-0.13108 28.4375,-1.17966 0,-2.75254 -18.87097,-37.88023 -30.92742,-57.54125 -16.5121,-27.00113 -36.5625,-56.62372 -53.20565,-78.38192 -15.20161,-20.05423 -16.77419,-22.54463 -13.89113,-22.54463 0.91734,0 7.73186,-2.88362 15.07057,-6.55367 30.14113,-14.8113 48.2258,-35.65198 57.00605,-66.19209 2.62096,-9.17514 3.01411,-13.23842 2.88306,-32.113 -0.13105,-17.82599 -0.65524,-23.46214 -2.88306,-32.11299 -7.86291,-29.22938 -26.60283,-51.77401 -55.04033,-66.06102 -18.60887,-9.43729 -43.50806,-15.59774 -73.64919,-18.61243 -33.67944,-3.27683 -107.06653,1.04859 -128.68951,7.47119 -2.22783,0.65537 -2.35888,10.74802 -2.35888,187.43503 v 186.64858 h 26.20968 26.20968 z M 422.89314,165.02147 c 7.60081,-3.67006 11.53226,-10.22373 11.53226,-19.52995 0,-12.97627 -8.125,-20.97175 -23.45766,-23.06892 -6.15927,-0.91752 -6.29032,-1.04859 -5.50403,-4.84972 0.39314,-2.09717 0.78629,-4.98079 0.78629,-6.29152 0,-2.09718 1.44153,-2.4904 12.84274,-2.75255 l 12.71169,-0.39322 0.39315,-6.16045 0.39315,-6.291524 h -19.52621 -19.52621 l -0.91734,10.879094 c -0.39315,5.89831 -1.17944,14.41808 -1.57258,19.00565 l -0.78629,8.12655 h 5.24193 c 3.01411,0 8.3871,0.65537 11.9254,1.44181 10.74597,2.22825 15.33267,10.74803 9.04234,16.51526 -4.19354,3.80113 -10.09072,4.71864 -19.39516,2.88361 -4.32459,-0.78644 -8.25605,-1.17966 -8.64919,-0.91751 -0.39315,0.39322 -0.78629,3.27683 -0.91734,6.4226 l -0.2621,5.76723 7.20766,1.57288 c 9.30444,2.09718 21.36089,1.04859 28.4375,-2.35932 z m 36.16936,0.39322 c 3.14516,-2.75254 2.88306,-10.09266 -0.39315,-13.36949 -5.89717,-5.89831 -15.7258,-1.44181 -15.7258,6.94689 0,8.65085 9.30443,12.45198 16.11895,6.4226 z m 105.625,-0.26215 c 7.99395,-4.58757 11.27016,-10.74802 11.27016,-21.10282 0,-6.9469 -0.65524,-9.69944 -2.75202,-12.45198 -5.24193,-7.07797 -9.17338,-8.91299 -19.65725,-9.43729 -5.24194,-0.26215 -9.69758,-1.04859 -9.69758,-1.57288 0,-0.52429 1.83467,-2.88362 4.19354,-5.11186 4.19355,-4.06328 14.15323,-7.99548 20.3125,-7.99548 2.75202,0 3.01412,-0.5243 3.01412,-6.55368 0,-7.340109 0.26209,-7.209036 -11.13912,-5.111861 -21.75403,3.932204 -34.72782,19.398871 -34.72782,41.025991 0,21.75819 10.61492,33.42373 28.6996,31.5887 3.14516,-0.39322 7.8629,-1.83503 10.48387,-3.27684 z M 353.30645,164.3661 c 9.82863,-2.62147 16.64315,-8.25763 20.96774,-17.17062 3.40726,-6.94689 3.80041,-8.91299 3.80041,-21.36497 0,-15.46667 -2.35887,-22.28249 -9.69758,-27.394352 -8.6492,-6.160452 -23.06452,-6.160452 -31.84476,0 -4.97984,3.538982 -8.91129,12.583052 -8.91129,20.316382 0,14.15593 9.30443,22.02034 25.29234,21.2339 4.84879,-0.26215 8.78024,0 8.78024,0.65537 0,0.65536 -2.22782,3.40791 -4.84879,6.16045 -4.71774,4.71864 -13.36694,7.86441 -21.36089,7.86441 -2.22782,0 -2.62097,0.91751 -2.62097,5.63616 0,3.14576 0.39315,6.16045 0.91734,6.68474 1.17944,1.04859 10.74597,-0.13107 19.52621,-2.62147 z m 131.44153,2.09718 c 19.78831,-3.27684 29.87904,-13.10735 32.89315,-32.113 4.3246,-26.87005 -9.95968,-44.95819 -31.58266,-40.108472 -13.89113,3.145763 -21.75404,16.384182 -18.08468,30.933332 2.75202,10.74802 11.53226,15.85989 25.94758,14.94237 7.33871,-0.52429 7.73186,-0.13107 4.45565,4.84972 -2.88307,4.4565 -10.09073,7.99548 -18.73992,9.04407 l -7.20767,0.91751 0.39315,6.4226 c 0.52419,7.20904 0.13105,6.94689 11.9254,5.11187 z m -361.5625,-7.86441 v -7.86441 h 3.93145 c 3.80041,0 3.93146,-0.26214 3.93146,-5.8983 0,-5.63616 -0.13105,-5.89831 -3.93146,-5.89831 h -3.93145 V 117.31073 95.683616 h -7.73185 c -7.33871,0 -7.8629,0.262147 -12.84274,5.636154 -12.842745,14.02486 -26.602825,36.96272 -26.602825,44.56498 v 4.84971 h 15.725806 15.725809 v 7.86441 7.86441 h 7.8629 7.8629 z m 62.90323,1.9661 v -5.8983 h -15.07057 c -10.74596,0 -15.07056,-0.39322 -15.07056,-1.57289 0,-0.78644 4.97984,-6.55367 11.00806,-12.71412 13.23589,-13.63164 17.03629,-20.44746 16.11896,-28.70508 -1.31049,-11.53447 -9.30444,-17.694919 -22.93347,-17.694919 -6.42137,0 -10.35282,0.786441 -14.93952,2.883616 -9.30443,4.456493 -9.95968,5.767233 -5.63508,11.927683 l 3.53831,5.11187 4.71774,-3.14577 c 8.3871,-5.76723 19.91935,-3.67005 19.91935,3.40791 0,4.4565 -2.48991,7.86441 -14.41532,20.18531 -12.05645,12.45198 -15.7258,18.61243 -15.7258,27.00113 v 5.11187 h 24.24395 24.24395 z"
         id="path9"
         inkscape:connector-curvature="0" />
      <path
         d="m 158.83064,770.44972 c 2.35888,-3.53899 6.94557,-4.58757 9.69759,-2.35933 3.93145,3.27684 2.09677,5.24294 -4.8488,5.24294 -6.68346,0 -6.68346,0 -4.84879,-2.88361 z"
         id="path11"
         inkscape:connector-curvature="0" />
      <path
         d="m 520.13105,783.68814 c -3.27621,-6.29153 -0.2621,-16.90848 4.97984,-16.90848 6.15927,0 9.56653,12.97627 4.58669,17.43277 -3.40726,3.01469 -7.73185,2.75254 -9.56653,-0.52429 z"
         id="path13"
         inkscape:connector-curvature="0" />
      <path
         d="m 119.51613,763.24068 0.39314,-6.29153 4.5867,0.39322 c 5.89717,0.5243 8.38709,3.01469 7.33871,7.20904 -0.78629,3.27684 -3.93145,4.84972 -9.69758,4.84972 -2.75202,0 -3.01412,-0.52429 -2.62097,-6.16045 z"
         id="path15"
         inkscape:connector-curvature="0" />
      <path
         d="m 196.96573,786.96497 c -0.91734,-0.39322 -1.70363,-2.22825 -1.70363,-3.9322 0,-2.75254 0.52419,-3.14576 5.37298,-3.14576 4.97984,0 5.24194,0.13107 4.84879,3.67005 -0.2621,2.75255 -1.17944,3.53898 -3.66935,3.80113 -1.83468,0.13108 -4.0625,-0.13107 -4.84879,-0.39322 z"
         id="path17"
         inkscape:connector-curvature="0" />
      <path
         d="m 429.31452,786.04746 c -3.53831,-2.62147 -1.31049,-6.16045 3.93145,-6.16045 4.0625,0 4.45564,0.39322 4.45564,3.9322 0,3.27683 -0.52419,3.9322 -3.01411,3.9322 -1.70363,0 -4.0625,-0.78644 -5.37298,-1.70395 z"
         id="path19"
         inkscape:connector-curvature="0" />
      <path
         d="m 158.56855,407.76949 c 0,-48.49717 0.39314,-71.04181 1.44153,-71.5661 0.65524,-0.52429 17.69153,-0.91751 37.61089,-1.04859 40.75605,-0.13107 53.33669,1.31074 72.6008,8.25763 31.84476,11.53446 47.83266,39.58418 42.98387,75.4983 -2.62096,20.44746 -9.69758,33.03051 -23.71975,42.33673 -19.65726,13.10734 -42.98387,17.17062 -98.94154,17.17062 h -31.9758 z"
         id="path21"
         inkscape:connector-curvature="0" />
      <path
         d="m 545.55443,152.83164 c -3.14516,-2.75254 -3.5383,-4.06328 -3.66935,-10.74802 v -7.73334 l 6.81452,-0.39322 c 5.50403,-0.26215 7.33871,0.13108 9.43548,2.22825 3.93145,3.9322 3.66935,12.3209 -0.52419,16.51525 -3.93146,4.06328 -7.33871,4.19435 -12.05646,0.13108 z"
         id="path23"
         inkscape:connector-curvature="0" />
      <path
         d="m 345.96774,125.83051 c -4.0625,-4.06328 -3.66935,-13.36949 0.78629,-16.90848 4.45565,-3.53898 7.46976,-3.40791 11.79436,0.26215 2.75201,2.35932 3.66935,4.58757 4.19354,9.96158 0.7863,8.12656 -0.26209,9.30622 -8.51814,9.30622 -3.93145,0 -6.42137,-0.78644 -8.25605,-2.62147 z"
         id="path25"
         inkscape:connector-curvature="0" />
      <path
         d="m 485.53427,125.17514 c -7.46975,-7.47119 -0.91734,-20.97175 9.04234,-18.48135 3.93145,0.91751 6.94557,6.02937 8.125,13.89378 1.04839,6.55367 -0.26209,7.86441 -8.38709,7.86441 -4.19355,0 -6.42138,-0.78644 -8.78025,-3.27684 z"
         id="path27"
         inkscape:connector-curvature="0" />
      <path
         d="m 91.733871,137.75819 c 0,-1.17966 8.518149,-14.02486 13.104839,-19.79209 l 2.62097,-3.27683 v 12.18983 12.05875 h -7.862906 c -4.324597,0 -7.862903,-0.52429 -7.862903,-1.17966 z"
         id="path29"
         inkscape:connector-curvature="0" />
    </g>
  </g>
</svg>
