<?xml version="1.0" encoding="UTF-8"?>
<svg width="354px" height="105px" viewBox="0 0 354 105" version="1.1" xmlns="http://www.w3.org/2000/svg" xmlns:xlink="http://www.w3.org/1999/xlink">
    <!-- Generator: Sketch 43.1 (39012) - http://www.bohemiancoding.com/sketch -->
    <title>Untitled 2</title>
    <desc>Created with Sketch.</desc>
    <defs></defs>
    <g id="Page-1" stroke="none" stroke-width="1" fill="none" fill-rule="evenodd">
        <path d="M70.194,30.09 L77.754,29.928 C78.7980052,29.8919998 79.32,30.3059957 79.32,31.17 L79.32,31.278 L79.158,33.87 C79.1219998,34.4460029 79.104,35.7959894 79.104,37.92 C79.104,38.5680032 79.1219998,39.3059959 79.158,40.134 L79.266,42.78 C79.266,43.572004 79.0140025,43.968 78.51,43.968 C77.9699973,43.968 77.7,43.572004 77.7,42.78 L77.754,42.672 L77.97,39.54 C78.0420004,38.4959948 78.078,37.1820079 78.078,35.598 C78.078,33.4739894 77.8980018,32.2050021 77.538,31.791 C77.1779982,31.3769979 76.098009,31.17 74.298,31.17 L67.386,31.17 C66.4499953,31.17 65.8740011,31.2869988 65.658,31.521 C65.4419989,31.7550012 65.334,32.3939948 65.334,33.438 L65.442,61.302 C65.442,62.5980065 65.5859986,63.4979975 65.874,64.002 C66.270002,64.6500032 67.0259944,64.974 68.142,64.974 C68.7180029,64.974 69.2759973,64.9380004 69.816,64.866 C70.1040014,64.8299998 70.5359971,64.812 71.112,64.812 C71.8680038,64.812 72.246,65.0459977 72.246,65.514 C72.246,65.9820023 71.8860036,66.216 71.166,66.216 L71.004,66.216 L69.762,66.108 C69.4379984,66.0719998 68.9160036,66.0360002 68.196,66 C66.5039915,65.8559993 65.5500011,65.784 65.334,65.784 L63.822,65.784 C63.4979984,65.784 62.9940034,65.8199996 62.31,65.892 L60.96,66 C60.1319959,66.0720004 59.6280009,66.108 59.448,66.108 L58.26,66.216 L58.044,66.216 C57.2879962,66.216 56.91,66.0000022 56.91,65.568 C56.91,65.0639975 57.305996,64.812 58.098,64.812 C58.7100031,64.812 59.1599986,64.8299998 59.448,64.866 C60.0240029,64.9380004 60.5819973,64.974 61.122,64.974 C62.2020054,64.974 62.939998,64.6140036 63.336,63.894 C63.5520011,63.4259977 63.6779998,62.5620063 63.714,61.302 L63.822,57.36 L63.822,33.492 C63.822,32.3759944 63.7140011,31.7100011 63.498,31.494 C63.2819989,31.2779989 62.6520052,31.17 61.608,31.17 L55.182,31.17 C53.6699924,31.17 52.7340018,31.2779989 52.374,31.494 C51.7259968,31.8540018 51.3840002,32.735993 51.348,34.14 C51.3119998,35.1840052 51.294,36.4979921 51.294,38.082 C51.294,38.478002 51.3119998,38.9999968 51.348,39.648 L51.51,42.726 C51.51,43.5900043 51.2760023,44.022 50.808,44.022 C50.3039975,44.022 50.052,43.5360049 50.052,42.564 L50.052,42.402 L50.214,39.378 L50.214,33.222 L50.106,31.062 C50.1420002,30.1979957 50.7359942,29.766 51.888,29.766 C52.2480018,29.766 53.1659926,29.8019996 54.642,29.874 C57.5940148,30.0180007 61.7159735,30.09 67.008,30.09 L70.194,30.09 Z M91.092,44.184 C93.0720099,40.7279827 95.8979816,39 99.57,39 C101.730011,39 103.502993,39.602994 104.889,40.809 C106.275007,42.015006 106.968,43.5719905 106.968,45.48 C106.968,46.7400063 106.653003,47.7929958 106.023,48.639 C105.392997,49.4850042 104.592005,49.908 103.62,49.908 C102.323994,49.908 101.676,49.3140059 101.676,48.126 C101.676,47.0459946 102.215995,46.506 103.296,46.506 C103.584001,46.506 103.871999,46.6139989 104.16,46.83 C104.448001,47.0460011 104.645999,47.154 104.754,47.154 C105.222002,47.154 105.456,46.5060065 105.456,45.21 C105.456,43.6979924 104.898006,42.4650048 103.782,41.511 C102.665994,40.5569952 101.208009,40.08 99.408,40.08 C96.3119845,40.08 94.062007,41.2319885 92.658,43.536 C91.6139948,45.2640086 91.092,47.927982 91.092,51.528 L91.092,56.118 C91.092,60.3300211 91.2359986,62.8679957 91.524,63.732 C91.8120014,64.5960043 92.6399932,65.028 94.008,65.028 C94.2600013,65.028 94.6379975,65.0100002 95.142,64.974 C95.6460025,64.9379998 96.0239987,64.92 96.276,64.92 L96.546,64.92 C97.338004,64.92 97.734,65.1359978 97.734,65.568 C97.734,66.0360023 97.3920034,66.27 96.708,66.27 L96.546,66.27 L94.656,66.108 L92.442,65.946 L90.822,65.892 L89.85,65.892 L88.284,65.946 L86.07,66.108 L84.18,66.27 L84.018,66.27 C83.3339966,66.27 82.992,66.0540022 82.992,65.622 C82.992,65.1539977 83.387996,64.92 84.18,64.92 L84.45,64.92 C84.7020013,64.92 85.0799975,64.9379998 85.584,64.974 C86.0880025,65.0100002 86.4659987,65.028 86.718,65.028 C88.122007,65.028 88.9679986,64.5960043 89.256,63.732 C89.5440014,62.8679957 89.688,60.3300211 89.688,56.118 L89.688,44.238 C89.6159996,42.3659906 89.3460023,41.2860014 88.878,40.998 C88.5899986,40.8179991 88.1220032,40.728 87.474,40.728 C87.2579989,40.728 86.6640049,40.7639996 85.692,40.836 L84.072,40.944 C83.3519964,40.944 82.992,40.7100023 82.992,40.242 C82.992,39.7739977 83.2979969,39.54 83.91,39.54 C84.2340016,39.54 84.8099959,39.5759996 85.638,39.648 C86.034002,39.6840002 86.4479978,39.702 86.88,39.702 L87.69,39.702 C88.086002,39.702 88.6619962,39.6480005 89.418,39.54 C89.4900004,39.54 89.5799995,39.5220002 89.688,39.486 L89.958,39.486 C90.7140038,39.486 91.092,39.881996 91.092,40.674 L91.092,44.184 Z M133.968,50.826 C133.968,51.5820038 133.797002,52.0319993 133.455,52.176 C133.112998,52.3200007 132.582004,52.392 131.862,52.392 L112.746,52.392 C112.241997,52.392 111.927001,52.4639993 111.801,52.608 C111.674999,52.7520007 111.612,53.1119971 111.612,53.688 C111.612,57.288018 112.59299,60.1949889 114.555,62.409 C116.51701,64.6230111 119.081984,65.73 122.25,65.73 C125.670017,65.73 128.35199,64.5240121 130.296,62.112 C131.052004,61.1759953 131.591998,60.1500056 131.916,59.034 C131.916,58.9259995 132.005999,58.476004 132.186,57.684 C132.330001,57.0719969 132.599998,56.766 132.996,56.766 C133.428002,56.766 133.644,57.0179975 133.644,57.522 C133.644,58.1340031 133.446002,58.943995 133.05,59.952 C132.185996,62.1120108 130.809009,63.794994 128.919,65.001 C127.028991,66.207006 124.824013,66.81 122.304,66.81 C118.631982,66.81 115.680011,65.5680124 113.448,63.084 C111.215989,60.5999876 110.1,57.3240203 110.1,53.256 C110.1,49.0439789 111.260988,45.6150132 113.583,42.969 C115.905012,40.3229868 118.901982,39 122.574,39 C125.778016,39 128.477989,40.1429886 130.674,42.429 C132.870011,44.7150114 133.968,47.5139834 133.968,50.826 Z M111.828,50.34 C111.828,50.8800027 112.223996,51.15 113.016,51.15 L131.592,51.15 C132.204003,51.15 132.51,50.8620029 132.51,50.286 C132.51,47.9819885 131.718008,45.7860104 130.134,43.698 C128.297991,41.2859879 125.742016,40.08 122.466,40.08 C119.981988,40.08 117.849009,40.7729931 116.067,42.159 C114.284991,43.5450069 113.016004,45.4979874 112.26,48.018 C111.971999,48.9540047 111.828,49.7279969 111.828,50.34 Z M143.742,41.484 C143.706,41.7000011 143.688,42.2939951 143.688,43.266 L143.688,54.606 C143.688,58.1700178 143.903998,60.7259923 144.336,62.274 C144.984003,64.5780115 146.459988,65.73 148.764,65.73 C150.600009,65.73 151.895996,65.1090062 152.652,63.867 C153.408004,62.6249938 153.786,60.5100149 153.786,57.522 L153.786,55.578 C153.75,55.4699995 153.732,55.3980002 153.732,55.362 C153.732,54.6059962 153.983997,54.228 154.488,54.228 C154.992003,54.228 155.244,54.6059962 155.244,55.362 L155.244,56.712 C155.244,59.2320126 155.064002,61.2119928 154.704,62.652 C154.019997,65.4240139 152.040016,66.81 148.764,66.81 C144.443978,66.81 142.284,63.714031 142.284,57.522 L142.284,43.266 C142.284,42.1139942 142.203001,41.4030014 142.041,41.133 C141.878999,40.8629987 141.438004,40.728 140.718,40.728 C140.501999,40.728 139.962004,40.7639996 139.098,40.836 L137.856,40.944 C137.171997,40.944 136.83,40.6920025 136.83,40.188 C136.83,39.7559978 137.153997,39.54 137.802,39.54 C138.090001,39.54 138.521997,39.5669997 139.098,39.621 C139.674003,39.6750003 140.105999,39.702 140.394,39.702 C141.510006,39.702 142.193999,39.3600034 142.446,38.676 C142.590001,38.279998 142.662,37.578005 142.662,36.57 L142.662,36.3 C142.662,34.7879924 142.707,33.8430019 142.797,33.465 C142.887,33.0869981 143.093998,32.898 143.418,32.898 C143.814002,32.898 144.012,33.1859971 144.012,33.762 L144.012,33.87 L143.85,36.462 C143.814,37.0380029 143.796,37.721996 143.796,38.514 C143.796,39.306004 144.317995,39.702 145.362,39.702 L147.144,39.702 C147.540002,39.702 148.142996,39.6750003 148.953,39.621 C149.763004,39.5669997 150.365998,39.54 150.762,39.54 C151.482004,39.54 151.842,39.7739977 151.842,40.242 C151.842,40.7100023 151.446004,40.944 150.654,40.944 L150.546,40.944 L148.872,40.89 C148.583999,40.89 147.990004,40.8540004 147.09,40.782 C146.333996,40.7459998 145.740002,40.728 145.308,40.728 C144.335995,40.728 143.814,40.9799975 143.742,41.484 Z M163.398,41.484 C163.362,41.7000011 163.344,42.2939951 163.344,43.266 L163.344,54.606 C163.344,58.1700178 163.559998,60.7259923 163.992,62.274 C164.640003,64.5780115 166.115988,65.73 168.42,65.73 C170.256009,65.73 171.551996,65.1090062 172.308,63.867 C173.064004,62.6249938 173.442,60.5100149 173.442,57.522 L173.442,55.578 C173.406,55.4699995 173.388,55.3980002 173.388,55.362 C173.388,54.6059962 173.639997,54.228 174.144,54.228 C174.648003,54.228 174.9,54.6059962 174.9,55.362 L174.9,56.712 C174.9,59.2320126 174.720002,61.2119928 174.36,62.652 C173.675997,65.4240139 171.696016,66.81 168.42,66.81 C164.099978,66.81 161.94,63.714031 161.94,57.522 L161.94,43.266 C161.94,42.1139942 161.859001,41.4030014 161.697,41.133 C161.534999,40.8629987 161.094004,40.728 160.374,40.728 C160.157999,40.728 159.618004,40.7639996 158.754,40.836 L157.512,40.944 C156.827997,40.944 156.486,40.6920025 156.486,40.188 C156.486,39.7559978 156.809997,39.54 157.458,39.54 C157.746001,39.54 158.177997,39.5669997 158.754,39.621 C159.330003,39.6750003 159.761999,39.702 160.05,39.702 C161.166006,39.702 161.849999,39.3600034 162.102,38.676 C162.246001,38.279998 162.318,37.578005 162.318,36.57 L162.318,36.3 C162.318,34.7879924 162.363,33.8430019 162.453,33.465 C162.543,33.0869981 162.749998,32.898 163.074,32.898 C163.470002,32.898 163.668,33.1859971 163.668,33.762 L163.668,33.87 L163.506,36.462 C163.47,37.0380029 163.452,37.721996 163.452,38.514 C163.452,39.306004 163.973995,39.702 165.018,39.702 L166.8,39.702 C167.196002,39.702 167.798996,39.6750003 168.609,39.621 C169.419004,39.5669997 170.021998,39.54 170.418,39.54 C171.138004,39.54 171.498,39.7739977 171.498,40.242 C171.498,40.7100023 171.102004,40.944 170.31,40.944 L170.202,40.944 L168.528,40.89 C168.239999,40.89 167.646005,40.8540004 166.746,40.782 C165.989996,40.7459998 165.396002,40.728 164.964,40.728 C163.991995,40.728 163.47,40.9799975 163.398,41.484 Z M185.484,56.118 C185.484,60.3300211 185.627999,62.8679957 185.916,63.732 C186.204001,64.5960043 187.031993,65.028 188.4,65.028 C188.652001,65.028 189.029997,65.0100002 189.534,64.974 C190.038003,64.9379998 190.415999,64.92 190.668,64.92 L190.938,64.92 C191.730004,64.92 192.126,65.1359978 192.126,65.568 C192.126,66.0360023 191.802003,66.27 191.154,66.27 L190.938,66.27 L189.048,66.108 L186.834,65.946 L185.268,65.892 L184.242,65.892 L182.73,65.946 L180.462,66.108 L178.572,66.27 L178.41,66.27 C177.725997,66.27 177.384,66.0540022 177.384,65.622 C177.384,65.1539977 177.779996,64.92 178.572,64.92 L178.842,64.92 C179.094001,64.92 179.480997,64.9379998 180.003,64.974 C180.525003,65.0100002 180.911999,65.028 181.164,65.028 C182.532007,65.028 183.359999,64.5960043 183.648,63.732 C183.936001,62.8679957 184.08,60.3300211 184.08,56.118 L184.08,44.238 C184.008,42.3659906 183.738002,41.2860014 183.27,40.998 C182.981999,40.8179991 182.514003,40.728 181.866,40.728 C181.649999,40.728 181.056005,40.7639996 180.084,40.836 L178.626,40.944 L178.464,40.944 C177.743996,40.944 177.384,40.7100023 177.384,40.242 C177.384,39.7739977 177.689997,39.54 178.302,39.54 L178.464,39.54 L180.084,39.702 L182.676,39.702 C182.892001,39.702 183.215998,39.6750003 183.648,39.621 C184.080002,39.5669997 184.403999,39.54 184.62,39.54 C185.196003,39.54 185.484,39.9539959 185.484,40.782 L185.484,56.118 Z M184.242,31.494 C184.782003,31.494 185.240998,31.691998 185.619,32.088 C185.997002,32.484002 186.186,32.9519973 186.186,33.492 C186.186,34.0320027 185.997002,34.4909981 185.619,34.869 C185.240998,35.2470019 184.800003,35.436 184.296,35.436 C183.719997,35.436 183.243002,35.2470019 182.865,34.869 C182.486998,34.4909981 182.298,34.0320027 182.298,33.492 C182.298,32.9159971 182.486998,32.4390019 182.865,32.061 C183.243002,31.6829981 183.701997,31.494 184.242,31.494 Z M223.932019,37.4871439 C223.932973,37.4806997 223.968966,38.5429748 224.04,40.674 L224.094,42.456 C224.094,43.5000052 223.842003,44.022 223.338,44.022 C223.121999,44.022 222.933001,43.8600016 222.771,43.536 C222.608999,43.2119984 222.528,42.9420011 222.528,42.726 C222.528,42.329998 222.564,41.7720036 222.636,41.052 C222.744001,39.9719946 222.798,38.6760076 222.798,37.164 C222.798,35.0399894 222.708001,33.7080027 222.528,33.168 C222.095998,31.9079937 221.052008,31.278 219.396,31.278 L206.22,31.278 C204.491991,31.278 203.457002,31.4129986 203.115,31.683 C202.772998,31.9530013 202.602,32.7359935 202.602,34.032 L202.602,46.56 C202.674,46.9200018 202.772999,47.1539995 202.899,47.262 C203.025001,47.3700005 203.483996,47.424 204.276,47.424 L210.918,47.424 C213.762014,47.424 215.184,46.2360119 215.184,43.86 C215.184,43.7519995 215.148,43.2300047 215.076,42.294 C215.004,41.3579953 214.968,40.6740022 214.968,40.242 C214.968,39.1979948 215.237997,38.676 215.778,38.676 C216.282003,38.676 216.534,39.2699941 216.534,40.458 C216.534,40.8900022 216.480001,41.7359937 216.372,42.996 L216.156,45.48 C216.084,46.3080041 216.048,47.1719955 216.048,48.072 C216.048,49.1520054 216.155999,50.8259887 216.372,53.094 L216.588,55.362 L216.588,55.686 C216.588,56.7300052 216.318003,57.252 215.778,57.252 C215.237997,57.252 214.968,56.6760058 214.968,55.524 L214.968,55.2 L215.076,53.796 C215.112,53.3279977 215.13,52.7880031 215.13,52.176 C215.13,50.771993 214.833003,49.8090026 214.239,49.287 C213.644997,48.7649974 212.538008,48.504 210.918,48.504 L204.114,48.504 C203.501997,48.504 203.097001,48.6389986 202.899,48.909 C202.700999,49.1790013 202.602,49.6919962 202.602,50.448 L202.602,53.634 L202.71,61.302 C202.71,62.5980065 202.853999,63.4979975 203.142,64.002 C203.538002,64.6500032 204.293994,64.974 205.41,64.974 C205.950003,64.974 206.507997,64.9380004 207.084,64.866 C207.372001,64.8299998 207.803997,64.812 208.38,64.812 C209.172004,64.812 209.568,65.0459977 209.568,65.514 C209.568,65.9820023 209.190004,66.216 208.434,66.216 L208.272,66.216 L207.03,66.108 C206.705998,66.108 206.202003,66.0720004 205.518,66 C204.113993,65.8559993 203.142003,65.784 202.602,65.784 L201.09,65.784 C200.621998,65.784 199.686007,65.8559993 198.282,66 C197.561996,66.0720004 197.040002,66.108 196.716,66.108 L195.528,66.216 L195.312,66.216 C194.555996,66.216 194.178,66.0000022 194.178,65.568 C194.178,65.0639975 194.573996,64.812 195.366,64.812 C195.978003,64.812 196.427999,64.8299998 196.716,64.866 C197.292003,64.9380004 197.849997,64.974 198.39,64.974 C199.470005,64.974 200.207998,64.6140036 200.604,63.894 C200.820001,63.4259977 200.946,62.5620063 200.982,61.302 L201.09,57.306 L201.036,35.112 C201.036,33.7439932 200.964001,32.862002 200.82,32.466 C200.531999,31.673996 199.848005,31.278 198.768,31.278 C198.227997,31.278 197.634003,31.3139996 196.986,31.386 L195.528,31.548 L195.258,31.548 C194.321995,31.548 193.854,31.2960025 193.854,30.792 C193.854,30.2519973 194.339995,29.982 195.312,29.982 L195.582,29.982 C197.274008,30.1620009 198.641995,30.252 199.686,30.252 L199.902,30.252 L201.198,30.198 L205.68,30.198 C211.152027,30.198 215.237987,30.1260007 217.938,29.982 L222.258,29.766 C223.518006,29.766 224.13,30.1979957 224.094,31.062 C224.022,31.5660025 223.986,32.1779964 223.986,32.898 L223.986,35.112 L223.932019,37.4871439 L223.932019,37.4871439 Z M250.662,50.826 C250.662,51.5820038 250.491002,52.0319993 250.149,52.176 C249.806998,52.3200007 249.276004,52.392 248.556,52.392 L229.44,52.392 C228.935997,52.392 228.621001,52.4639993 228.495,52.608 C228.368999,52.7520007 228.306,53.1119971 228.306,53.688 C228.306,57.288018 229.28699,60.1949889 231.249,62.409 C233.21101,64.6230111 235.775984,65.73 238.944,65.73 C242.364017,65.73 245.04599,64.5240121 246.99,62.112 C247.746004,61.1759953 248.285998,60.1500056 248.61,59.034 C248.61,58.9259995 248.699999,58.476004 248.88,57.684 C249.024001,57.0719969 249.293998,56.766 249.69,56.766 C250.122002,56.766 250.338,57.0179975 250.338,57.522 C250.338,58.1340031 250.140002,58.943995 249.744,59.952 C248.879996,62.1120108 247.503009,63.794994 245.613,65.001 C243.722991,66.207006 241.518013,66.81 238.998,66.81 C235.325982,66.81 232.374011,65.5680124 230.142,63.084 C227.909989,60.5999876 226.794,57.3240203 226.794,53.256 C226.794,49.0439789 227.954988,45.6150132 230.277,42.969 C232.599012,40.3229868 235.595982,39 239.268,39 C242.472016,39 245.171989,40.1429886 247.368,42.429 C249.564011,44.7150114 250.662,47.5139834 250.662,50.826 Z M228.522,50.34 C228.522,50.8800027 228.917996,51.15 229.71,51.15 L248.286,51.15 C248.898003,51.15 249.204,50.8620029 249.204,50.286 C249.204,47.9819885 248.412008,45.7860104 246.828,43.698 C244.991991,41.2859879 242.436016,40.08 239.16,40.08 C236.675988,40.08 234.543009,40.7729931 232.761,42.159 C230.978991,43.5450069 229.710004,45.4979874 228.954,48.018 C228.665999,48.9540047 228.522,49.7279969 228.522,50.34 Z M262.758,40.944 L262.758,44.184 C264.630009,40.7279827 267.59998,39 271.668,39 C274.836016,39 277.157993,39.8639914 278.634,41.592 C279.282003,42.3480038 279.875997,43.4639926 280.416,44.94 C281.172004,43.4279924 281.927996,42.2940038 282.684,41.538 C284.448009,39.8459915 286.751986,39 289.596,39 C291.720011,39 293.528993,39.4409956 295.023,40.323 C296.517007,41.2050044 297.497998,42.4199923 297.966,43.968 C298.218001,44.7960041 298.362,45.7859942 298.398,46.938 C298.434,48.0900058 298.452,49.367993 298.452,50.772 L298.452,56.118 C298.452,60.2940209 298.595999,62.8229956 298.884,63.705 C299.172001,64.5870044 299.999993,65.028 301.368,65.028 C301.620001,65.028 301.997997,65.0100002 302.502,64.974 C303.006003,64.9379998 303.383999,64.92 303.636,64.92 L303.906,64.92 C304.698004,64.92 305.094,65.1359978 305.094,65.568 C305.094,66.0360023 304.770003,66.27 304.122,66.27 L303.906,66.27 L302.016,66.108 L299.802,65.946 L298.29,65.892 L297.21,65.892 L295.644,65.946 L293.43,66.108 L291.54,66.27 L291.378,66.27 C290.693997,66.27 290.352,66.0540022 290.352,65.622 C290.352,65.1539977 290.747996,64.92 291.54,64.92 L291.81,64.92 C292.062001,64.92 292.439997,64.9379998 292.944,64.974 C293.448003,65.0100002 293.825999,65.028 294.078,65.028 C295.482007,65.028 296.327999,64.6050042 296.616,63.759 C296.904001,62.9129958 297.048,60.3660212 297.048,56.118 L297.048,50.286 C297.048,47.5499863 296.994001,45.8310035 296.886,45.129 C296.777999,44.4269965 296.418003,43.6620041 295.806,42.834 C294.473993,40.9979908 292.332015,40.08 289.38,40.08 C286.103984,40.08 283.710008,41.3399874 282.198,43.86 C281.261995,45.4440079 280.794,47.9279831 280.794,51.312 L280.794,56.118 C280.794,60.3660212 280.928999,62.9129958 281.199,63.759 C281.469001,64.6050042 282.323993,65.028 283.764,65.028 C284.016001,65.028 284.393997,65.0100002 284.898,64.974 C285.402003,64.9379998 285.779999,64.92 286.032,64.92 L286.248,64.92 C287.040004,64.92 287.436,65.1359978 287.436,65.568 C287.436,66.0360023 287.112003,66.27 286.464,66.27 L286.248,66.27 L284.412,66.108 L282.198,65.946 L280.578,65.892 L279.552,65.892 L278.04,65.946 L275.772,66.108 L273.882,66.27 L273.72,66.27 C273.035997,66.27 272.694,66.0540022 272.694,65.622 C272.694,65.1539977 273.089996,64.92 273.882,64.92 L274.152,64.92 C274.404001,64.92 274.790997,64.9379998 275.313,64.974 C275.835003,65.0100002 276.221999,65.028 276.474,65.028 C277.842007,65.028 278.669999,64.5960043 278.958,63.732 C279.246001,62.8679957 279.39,60.3300211 279.39,56.118 L279.39,49.368 C279.39,47.6039912 279.354,46.4520027 279.282,45.912 C279.101999,44.7239941 278.634004,43.6620047 277.878,42.726 C276.473993,40.9619912 274.386014,40.08 271.614,40.08 C268.553985,40.08 266.178008,41.1959888 264.486,43.428 C263.405995,44.8680072 262.866,46.991986 262.866,49.8 L262.866,56.118 C262.866,60.3300211 263.000999,62.8679957 263.271,63.732 C263.541001,64.5960043 264.359993,65.028 265.728,65.028 C265.980001,65.028 266.366997,65.0100002 266.889,64.974 C267.411003,64.9379998 267.797999,64.92 268.05,64.92 L268.32,64.92 C269.112004,64.92 269.508,65.1359978 269.508,65.568 C269.508,66.0360023 269.166003,66.27 268.482,66.27 L268.32,66.27 L266.43,66.108 L264.162,65.946 L262.758,65.892 L261.624,65.892 L260.112,65.946 L257.844,66.108 L255.954,66.27 L255.792,66.27 C255.107997,66.27 254.766,66.0540022 254.766,65.622 C254.766,65.1539977 255.161996,64.92 255.954,64.92 L256.224,64.92 C256.476001,64.92 256.853997,64.9379998 257.358,64.974 C257.862003,65.0100002 258.239999,65.028 258.492,65.028 C259.896007,65.028 260.741999,64.5960043 261.03,63.732 C261.318001,62.8679957 261.462,60.3300211 261.462,56.118 L261.462,44.238 C261.39,42.3659906 261.102003,41.2860014 260.598,40.998 C260.345999,40.8179991 259.896003,40.728 259.248,40.728 C259.031999,40.728 258.438005,40.7639996 257.466,40.836 L256.008,40.944 L255.846,40.944 C255.125996,40.944 254.766,40.7100023 254.766,40.242 C254.766,39.7739977 255.071997,39.54 255.684,39.54 L255.846,39.54 L257.412,39.702 L259.842,39.702 C260.058001,39.702 260.399998,39.6750003 260.868,39.621 C261.336002,39.5669997 261.677999,39.54 261.894,39.54 C262.470003,39.54 262.758,40.0079953 262.758,40.944 Z" id="TrettiFem" fill="#000000"></path>
        <rect id="Rectangle" stroke="#005744" stroke-width="2" x="1.5" y="1.5" width="351" height="102"></rect>
    </g>
</svg>